<svg width="318" height="237" fill="none" xmlns="http://www.w3.org/2000/svg"><path d="M186.096 177.649c5.194-7.499 3.871-18.983-5.331-24.371-3.515-2.059-7.309-3.03-11.372-3.03-12.98.005-25.955 0-38.935 0-.243 0-.487.015-.73 0-.467-.031-.665.188-.65.646.011.325 0 .65 0 .976v54.019c0 1.143.011 1.159.969 1.159 13.508 0 27.01.061 40.518-.036 4.849-.036 9.252-1.723 12.884-4.997 4.874-4.398 6.548-9.924 5.173-16.329-.492-2.293-1.628-4.326-3.023-6.197-.319-.427-.411-.747-.005-1.149.203-.198.34-.457.502-.691zm-37.124-12.287c1.623.02 3.246.005 4.87.005h12.777c.324 0 .649-.016.974.005 1.719.101 2.815 1.245 2.779 2.903-.035 1.642-1.182 2.882-2.82 2.902-3.084.041-6.168.01-9.247.01v.006c-3.043 0-6.087.005-9.125-.006-.872 0-.888-.02-.893-.854-.01-1.423.01-2.846-.01-4.27-.015-.513.168-.706.695-.701zm21.263 24.589c-.37 1.175-1.192 1.805-2.384 1.963-.319.045-.649.02-.974.02h-17.281c-.243 0-.487-.01-.73 0-.396.015-.594-.127-.594-.559.01-1.586.015-3.173 0-4.759-.005-.528.299-.579.705-.574 1.502.005 3.003 0 4.504 0h4.992v.005c3.002 0 6.005.041 9.003-.015 1.943-.036 3.378 1.942 2.759 3.919z" fill="#4B24C9"/><path d="M247.619 177.461c5.016-7.407 3.85-19.084-5.965-24.488a21.677 21.677 0 00-10.601-2.725c-13.102-.005-26.204-.005-39.306-.005-.122 0-.243.015-.365 0-.609-.076-.923.142-.857.803.03.28.005.569.005.854v53.663c0 .325.01.651.005.976-.005.356.162.519.517.509.203-.006.406 0 .609 0 13.305 0 26.609.03 39.914-.021 4.687-.015 8.912-1.55 12.62-4.433 6.285-4.88 8.278-14.061 4.149-21.051-.39-.666-.771-1.352-1.263-1.937-.467-.559-.426-.971.046-1.454.198-.193.335-.452.492-.691zm-37.951-11.388c-.005-.518.192-.722.715-.711 1.217.025 2.435.005 3.652.005h13.989c.325 0 .65-.016.974.005 1.73.101 2.795 1.23 2.765 2.913-.031 1.652-1.167 2.877-2.815 2.897-3.084.041-6.163.01-9.247.01v.006c-3.044 0-6.082.005-9.125-.006-.873 0-.893-.02-.898-.859-.015-1.418.01-2.836-.01-4.26zm21.856 24.173c-.497 1.179-1.46 1.683-2.708 1.683h-9.125c-3.044 0-6.082.005-9.126 0-.862 0-.877-.021-.882-.87a190.722 190.722 0 010-4.143c.01-.844.025-.864.898-.864 4.093-.01 8.192-.005 12.285-.005 1.988 0 3.977.061 5.96-.015 2.09-.077 3.576 2.14 2.698 4.214zM67.815 151.681c0-.284-.01-.569-.005-.854.005-.401-.178-.6-.588-.584-.244.01-.487 0-.73 0-5.682 0-11.358.015-17.039-.021-.817-.005-1.329.255-1.82.895-4.186 5.389-8.416 10.742-12.6 16.13-.98 1.261-1.289 1.241-2.232.021-4.13-5.328-8.319-10.61-12.443-15.948-.603-.782-1.212-1.123-2.216-1.108-3.287.066-6.569.026-9.856.026-2.394 0-4.788-.006-7.182 0-1.086 0-1.086.01-1.101 1.032-.005.203 0 .406 0 .61v53.663c0 .284.015.569 0 .854-.03.467.167.676.64.645.243-.015.486 0 .73 0 5.518 0 11.032.005 16.55 0 1.41 0 1.284.153 1.284-1.321.005-9.634 0-19.273.015-28.906 0-.407-.279-.996.223-1.205.502-.208.74.381 1.02.697 2.389 2.658 4.768 5.327 7.147 7.991 1.785 1.998 3.566 4.001 5.366 5.989.654.722 1.162.716 1.831.03.31-.32.599-.661.898-.996 3.896-4.362 7.791-8.724 11.692-13.081.258-.284.466-.793.938-.65.533.162.203.691.274 1.052.036.198.005.407.005.61v28.296c0 .325.01.65.005.976-.005.351.142.529.502.518.244-.01.487 0 .73 0h16.674c1.4 0 1.283.133 1.283-1.337.005-18.001.005-36.012.005-54.024zM98.447 149.317c-16.15.036-29.298 13.213-29.268 29.343.03 16.227 13.209 29.369 29.41 29.333 16.079-.036 29.181-13.294 29.13-29.475-.051-16.095-13.219-29.231-29.272-29.201zm-.082 42.881c-7.512-.041-13.472-6.1-13.436-13.655.04-7.539 6.132-13.476 13.786-13.436 7.299.041 13.275 6.182 13.249 13.604a13.474 13.474 0 01-13.599 13.487z" fill="#4B24C9"/><path d="M316.475 150.248c-7.263 0-14.522.015-21.785-.026-.756-.005-1.081.361-1.441.87-3.829 5.398-7.664 10.797-11.499 16.191-.908 1.276-1.019 1.276-1.958-.01-3.931-5.379-7.872-10.747-11.778-16.141-.481-.666-.989-.91-1.805-.91-6.98.031-13.954.021-20.934.021h-1.146c.177.63.538.965.822 1.337 8.546 11.209 17.088 22.418 25.661 33.603.583.757.811 1.499.806 2.445-.035 5.978-.015 11.951-.015 17.93 0 .325.01.651.005.976-.01.346.127.534.492.524.243-.011.487 0 .73 0h16.673c.243 0 .487-.011.73 0 .421.02.579-.199.563-.595-.01-.285 0-.57 0-.854 0-6.06.016-12.115-.015-18.174-.005-.86.208-1.536.726-2.232 8.232-11.088 16.439-22.19 24.646-33.298.35-.478.776-.915 1.055-1.612-.289-.025-.411-.045-.533-.045zM82.282 227.926c-.472-.315-1.953.025-2.273.534-.629.991-1.237 1.987-1.978 3.177-.644-1.032-1.278-1.845-1.69-2.76-.476-1.053-1.282-1.068-2.2-1.017-.396.025-.594.178-.594.59.005 2.597.005 5.2-.005 7.798 0 .412.162.6.573.579.203-.01.406-.02.609.006.593.071.781-.194.756-.768-.036-.93-.01-1.866-.01-2.801 0-.615.005-1.236.005-1.851.076-.005.152-.01.223-.02l2.267 3.365c.949-1.108 1.481-2.389 2.556-3.523v.814c0 1.383.01 2.76-.005 4.143-.005.463.163.676.634.641.244-.021.487-.016.73 0 .397.015.594-.138.59-.56-.01-2.597-.006-5.2-.006-7.798.02-.214.01-.427-.182-.549zM122.906 233.187c1.08-.833 1.217-1.972.979-3.182-.219-1.118-1.02-1.708-2.08-1.972-.315-.077-.634-.153-.954-.158-1.176-.02-2.348.015-3.525-.025-.604-.021-.766.228-.756.787.026 1.541.005 3.086.005 4.632 0 .976.016 1.947-.005 2.923-.01.473.183.666.65.63.202-.015.405-.015.608 0 .513.046.741-.157.71-.696-.03-.524.005-1.058-.005-1.581-.005-.387.117-.59.548-.61.609-.031 1.121.035 1.415.666.137.289.35.544.533.813.964 1.444.964 1.444 2.714 1.398.106-.005.243.025.339-.249-.593-.89-1.237-1.851-1.851-2.771.132-.396.457-.437.675-.605zm-1.826-1.062c-.386.096-.797.076-1.198.107-1.516-.046-1.334.132-1.354-1.388 0-.204.005-.402.005-.605-.005-.331.117-.544.482-.544.644.005 1.294-.026 1.928.046.679.076 1.004.483 1.034 1.123.031.636-.274 1.108-.897 1.261zM99.395 227.809c-.481-.056-.821.061-1.034.585-.807 1.987-1.674 3.95-2.496 5.932-.325.778-.746 1.515-.923 2.359 1.75.29 1.75.29 2.389-1.144a.754.754 0 00.04-.117c.122-.477.447-.615.909-.599.684.025 1.384.071 2.059-.011.852-.101 1.222.27 1.476 1.037.33.982.38.971 1.374.961.3-.005.635.102.985-.178-1.182-2.786-2.379-5.571-3.541-8.367-.274-.651-.791-.402-1.238-.458zm.67 5.287c-.517-.01-1.045.081-1.628-.091.192-.9.568-1.703 1.085-2.705.37.885.675 1.576.954 2.278.157.381-.061.528-.411.518zM59.41 231.932c-.405-.173-.831-.31-1.252-.453-.457-.157-.929-.284-1.38-.452-.375-.137-.624-.402-.558-.834.066-.427.396-.595.77-.656.716-.117 1.39.061 1.969.453.558.376.883.229 1.151-.3.137-.275.457-.468.406-.829-1.187-.884-2.095-1.159-3.515-1.072-1.491.091-2.577.996-2.744 2.282-.188 1.464.41 2.323 2.019 2.867.649.219 1.318.397 1.968.621.4.137.745.381.67.884-.082.554-.503.671-.975.722-1.08.107-1.973-.33-2.896-1.012-.335.387-.593.692-.862.992-.249.279-.188.498.101.701 1.568 1.093 3.262 1.419 5.068.753 1.055-.392 1.531-1.241 1.552-2.385.015-1.128-.502-1.855-1.492-2.282zM142.753 227.85c-.968.035-1.942.01-2.916.01-.893 0-1.781-.005-2.673 0-1.106.01-1.131.066-1.096 1.174.015.539.228.717.736.692.487-.026.973.005 1.455 0 .35-.005.523.152.513.508-.005.285.005.569.005.854 0 1.622-.005 3.249.005 4.87 0 .275-.112.666.177.778.492.193 1.06.173 1.552.025.361-.111.214-.569.214-.874.01-1.703 0-3.411.01-5.114.005-1.037.015-1.037 1.085-1.047.325-.005.649-.021.974 0 .7.045.654-.427.649-.885-.01-.493.092-1.017-.69-.991zM230.753 235.877c-.892-.005-1.785-.005-2.678-.005-2.237 0-2.211 0-2.151-2.308.016-.646.239-.844.858-.829 1.136.036 2.272.01 3.408.005.284 0 .589 0 .599-.412.015-.401-.254-.452-.563-.457-.69-.005-1.38-.005-2.07-.005-2.485 0-2.475 0-2.221-2.501.04-.417.192-.575.593-.57 1.096.011 2.191 0 3.287 0 .365 0 .73-.005 1.096-.01.294-.005.441-.142.431-.447-.01-.29-.147-.453-.437-.468a7.886 7.886 0 00-.486-.015c-1.542 0-3.084-.01-4.626.005-.832.01-.842.025-.853.92-.015 1.18-.005 2.359-.005 3.538 0 1.261.016 2.522-.005 3.783-.01.493.117.747.67.742 1.745-.021 3.49-.01 5.234-.01.35 0 .655-.031.624-.514-.035-.498-.39-.442-.705-.442zM249.085 232.344c-.517-.224-1.075-.356-1.613-.524-.461-.142-.943-.244-1.39-.432-.558-.239-.933-.666-.887-1.322.045-.64.451-1.032 1.019-1.24.421-.158.878-.138 1.324-.107.67.046 1.248.325 1.796.686.355.229.502-.045.679-.264.229-.285.021-.437-.182-.575-1.177-.808-2.476-.996-3.83-.64-1.09.285-1.77 1.169-1.826 2.181-.056 1.093.446 1.85 1.633 2.287.721.265 1.487.402 2.222.626 1.045.32 1.496.823 1.441 1.55-.056.803-.771 1.383-1.821 1.459-.239.016-.487 0-.726-.04-.73-.117-1.42-.351-1.993-.839-.35-.305-.634-.315-.888.096-.269.438.142.57.37.738.878.65 1.872.95 2.963.925.568-.01 1.131-.036 1.658-.295.924-.453 1.436-1.154 1.456-2.201.031-1.032-.517-1.683-1.405-2.069zM160.882 228.745a3.264 3.264 0 011.634.752c.355.3.623.305.908-.066.329-.427-.066-.585-.3-.758-1.506-1.118-3.17-1.26-4.829-.513-1.704.768-2.521 2.216-2.556 3.574-.041 2.338.659 3.787 2.267 4.667 1.583.864 3.206.782 4.728-.189.35-.223 1.08-.416.725-1.032-.416-.721-.822-.02-1.172.204-1.445.915-3.094.859-4.291-.183-1.243-1.083-1.603-3.02-.852-4.581.7-1.438 2.08-2.125 3.738-1.875zM196.758 227.855c-.928-.005-1.861 0-2.789 0v.005h-3.034c-.36 0-.492.213-.492.549.005.335.244.381.497.386.569.01 1.137.041 1.7 0 .629-.045.852.188.842.829-.031 1.988-.01 3.975-.01 5.963 0 .285.005.569.02.849.02.315.228.381.502.376.279-.005.467-.101.477-.406.01-.285.015-.57.015-.849 0-1.907-.005-3.813.005-5.72.005-1.011.015-1.011.974-1.026.446-.006.888 0 1.334-.006.325-.005.664.026.649-.477-.03-.488-.365-.468-.69-.473zM176.982 227.865c-.569.03-.467.457-.467.803-.01 1.174-.005 2.354-.005 3.528v3.894c0 .376-.015.748.537.732.492-.015.467-.35.467-.676.005-2.516.005-5.028 0-7.544.005-.371.031-.768-.532-.737zM210.834 227.86c-.471.01-.481.335-.481.671v7.666c0 .366.071.63.527.62.487-.01.477-.335.477-.666.005-1.255 0-2.516 0-3.772 0-1.256.005-2.516 0-3.772.005-.361.04-.762-.523-.747zM216.513 59.815c.254-.722.284-1.358 0-2.095-1.121-2.918-2.176-5.861-3.251-8.794-.153-.417-.3-.83-.295-1.297.021-1.586.021-3.172 0-4.758-.005-.509.122-.758.665-.95 1.471-.535 2.13-1.958 1.659-3.32-.482-1.378-1.821-2.07-3.338-1.612-.528.158-.802.061-1.136-.33-2.268-2.664-4.535-5.318-5.316-8.876-.01-.041-.031-.077-.041-.117-.126-.55-.471-.905-.943-1.205-1.131-.717-2.222-1.5-3.353-2.211-.664-.417-1.207-.941-1.694-1.546-2.374-2.938-4.783-5.851-7.137-8.805-.512-.645-1.106-1.001-1.882-1.2-3.261-.818-6.513-1.677-9.769-2.506a6.607 6.607 0 01-2.085-.94c-2.419-1.637-4.879-3.213-7.278-4.88-.736-.514-1.416-.626-2.263-.448-2.059.437-4.139.798-6.198 1.225a3.497 3.497 0 01-1.669-.04c-2.11-.57-4.225-1.15-6.35-1.658-.614-.147-.842-.391-.944-1.022-.264-1.596-1.532-2.567-2.993-2.414-1.526.157-2.576 1.413-2.455 3.07.046.615-.081.95-.623 1.256-3.074 1.733-6.128 3.497-9.186 5.261-.356.204-.721.341-1.132.417-2.586.483-5.173.992-7.76 1.47-.7.132-1.263.406-1.76.96-1.36 1.51-2.841 2.908-4.16 4.454-1.689 1.977-3.677 3.512-5.985 4.687-.548.28-.969.396-1.562.112-1.03-.499-2.004-.214-2.785.564-.786.778-1.08 1.769-.583 2.79.329.672.274 1.21-.046 1.82a15.673 15.673 0 00-.817 1.77c-.35.935-.918 1.698-1.613 2.4-1.197 1.214-2.338 2.48-3.535 3.7-.391.402-.593.814-.614 1.388-.05 1.383-.187 2.755-.248 4.138-.061 1.317-.386 2.537-.954 3.737-1.309 2.75-2.526 5.54-3.814 8.301-.289.626-.35 1.185-.163 1.866.99 3.559 1.923 7.132 2.887 10.701.152.554.238 1.103.197 1.683-.248 3.487-.451 6.974-.735 10.462-.091 1.108.046 2.018.847 2.887 1.126 1.22 2.024 2.654 3.16 3.864 1.862 1.983 3.008 4.275 3.485 6.944.177.976.243.966-.604 1.622-1.552 1.205-1.836 3.355-.644 4.885 1.192 1.53 3.332 1.78 4.879.56.224-.173.416-.382.67-.616 1.613 1.022 3.211 2.06 4.829 3.056a6.528 6.528 0 011.714 1.52c2.876 3.629 5.778 7.239 8.654 10.869.431.544.892.828 1.603.925 2.612.345 5.204.808 7.816 1.154 2.384.315 4.717.671 6.665 2.292.512.428.964.707 1.009 1.495.056.92.721 1.54 1.624 1.769.897.229 1.866.036 2.247-.783.476-1.027 1.278-1.103 2.15-1.25.837-.143 1.684-.26 2.511-.458 1.081-.259 2.146-.315 3.241-.127 1.837.31 3.688.544 5.524.875.964.172 1.801.066 2.668-.433 2.009-1.143 4.068-2.196 6.102-3.289.467-.254.949-.452 1.476-.549 1.994-.356 3.997-.681 5.98-1.093.609-.127.944-.086 1.233.524.345.737 1.009 1.159 1.826 1.271.999.137 1.862-.168 2.48-.971.65-.844.817-1.82.274-2.74-.37-.626-.258-.966.208-1.439 1.172-1.184 2.288-2.42 3.409-3.65a5.46 5.46 0 011.532-1.174c3.332-1.764 6.65-3.559 9.992-5.303.695-.36 1.121-.808 1.37-1.57.903-2.781 1.871-5.542 2.82-8.302.157-.458.32-.9.675-1.276a182.759 182.759 0 003.571-3.833c.37-.407.644-.539 1.232-.275 1.501.666 3.059-.005 3.617-1.438.563-1.439-.102-2.99-1.669-3.533-.639-.224-.67-.55-.67-1.058.005-2.4.021-4.799-.005-7.198a6.122 6.122 0 01.371-2.14c1.07-3.076 2.105-6.157 3.185-9.222zm-4.479-17.844c.355.046.452.275.452.59v3.553c-.077.016-.158.036-.234.051-.35-.956-.695-1.916-1.05-2.872-.152-.407.127-.681.264-1.002.112-.249.289-.355.568-.32zm-.969-.57c.3.351.107.57-.233.789-.289-.529-.583-1.042-.528-1.668-.005-.005-.01-.015-.02-.02v-.046c-.669-.783-.73-1.815-1.177-2.725 1.137.188 1.213.29 1.162 1.312-.025.468.005.94.015 1.413.01.01.015.02.02.03v.041c.254.29.513.58.761.875zm-4.423 4.978c-.943-1.109-1.866-2.237-2.8-3.356-.258-.31-.497-.59-.436-1.067.309-2.395.583-4.8.893-7.387 1.359.824 2.592 1.566 3.824 2.313.254.158.36.427.457.697.593 1.637 1.182 3.274 1.795 4.9.127.33.132.6-.04.916-.781 1.458-1.542 2.928-2.344 4.453-.593-.427-.938-.981-1.349-1.47zm.802 2.526c-.508.92-1.005 1.85-1.471 2.796-.188.376-.396.615-.837.432-.497-.208-1.04-.045-1.664-.193v-8.596c1.385 1.662 2.643 3.187 3.916 4.692.243.295.238.544.056.87zM186.617 36.1c.076-1.296.182-2.587.218-3.883.015-.544.248-.794.725-.956 1.07-.366 2.13-.758 3.191-1.154.451-.173.776-.219 1.121.28.73 1.042 1.795 1.484 3.058 1.352.487-.051.71.117.893.564.624 1.535.644 1.53-.629 2.583-2.308 1.91-4.611 3.828-6.924 5.729-.253.208-.492.66-.893.406-.451-.29-1.009-.538-.943-1.276.091-1.006.127-2.023.188-3.035l.03-.605c-.015-.005-.025-.005-.035-.005zm-1.776-13.497c-1.912-.335-3.829-.66-5.742-.99-1.115-.194-2.226-.438-3.347-.575-.548-.066-.786-.31-.883-.809-.045-.239-.091-.483-.193-.701-.218-.488-.157-.783.366-1.073.979-.539 1.562-1.418 1.663-2.542.046-.503.229-.727.721-.757.563-.03 1.126-.112 1.41-.137.548-.107.74.025.913.218l5.686 6.507c.162.183.319.366.152.64-.193.3-.457.27-.746.22zm.289.534c-.968.554-1.805.56-2.586.727-1.857.407-3.734.722-5.595 1.129-.528.117-.736-.016-.862-.504-.254-.965-.538-1.926-.853-3.05 3.318.57 6.483 1.114 9.896 1.698zm-52.376 21.407c-1.111-.488-2.237-.945-3.612-1.525 3.845-1.621 7.497-3.162 11.144-4.697.03.071.061.142.096.219-2.176 1.947-4.357 3.889-6.523 5.85-.36.321-.684.341-1.105.153zm.213.636c-1.38 1.23-2.608 2.323-4.043 3.61-.172-1.887-.147-3.524-.178-5.252.782.06 1.385.462 2.035.706.674.25 1.328.565 2.186.936zm-4.312-2.786c-.314-.397-.213-.702-.116-.986 1.668-4.952 3.352-9.903 5.006-14.86.177-.528.39-.666.954-.605 1.881.209 3.332-.544 4.21-2.226.299-.575.629-.636 1.151-.483.893.254 1.79.488 2.932.798-4.763 6.182-9.42 12.236-14.137 18.362zm-5.65-15.002c2.805-1.149 5.569-2.318 8.374-3.38.051.106.101.218.152.325a8890.709 8890.709 0 00-7.289 6.36c-.512-1.109-.877-2.156-1.237-3.305zm.446 4.016c-.705.59-1.4 1.19-2.095 1.79-.051-.036-.106-.072-.157-.107l1.369-4.682c.082-.005.163-.015.244-.02.279.762.553 1.525.847 2.277.117.315.035.539-.208.742zm17.976-16.252c2.06.503 4.124.996 6.204 1.494-.132.33-.386.366-.609.453-2.394.97-4.793 1.927-7.177 2.928-.573.239-.888.25-1.238-.376-.624-1.113-.68-1.083.162-2.074.579-.676 1.162-1.347 1.73-2.039.249-.305.507-.493.928-.386zm-.147-.524c1.634-1.916 3.135-3.665 4.621-5.43.259-.31.578-.396.944-.467 3.297-.625 6.594-1.27 9.891-1.906.395-.076.781-.153 1.171.081 1.111.661 2.237 1.296 3.465 2.003-1.289.763-2.465 1.47-3.647 2.166-2.719 1.606-5.448 3.197-8.152 4.83-.603.365-1.131.436-1.815.258-2.07-.543-4.16-.996-6.478-1.535zm-3.408 3.254c-.274.33-.503.422-.913.183-.873-.504-1.842-.656-2.816-.412-1.76.442-2.947 1.52-3.241 3.365-.111.707-.365.926-1.07.966-1.608.097-3.211.305-4.986.483.766-1.89 1.476-3.645 2.176-5.399.137-.34.431-.472.71-.63 1.649-.95 3.297-1.891 4.946-2.837.314-.183.598-.366 1.014-.264 2.156.524 4.317 1.022 6.69 1.581-.948 1.113-1.739 2.028-2.51 2.964zm-12.778 5.048a209.55 209.55 0 005.058-.498c.481-.051.7.096.847.584.157.524-.112.63-.467.773-2.389.966-4.773 1.932-7.426 3.004.507-1.276.908-2.282 1.314-3.294.127-.3.274-.539.674-.57zm-.131 7.773a345.57 345.57 0 006.325-5.516c.456-.407.776-.427 1.232-.026.376.331.873.433.609 1.195-1.674 4.825-3.287 9.67-4.94 14.585-.33-.198-.366-.452-.452-.676-1.014-2.735-2.029-5.475-3.064-8.205-.208-.539-.223-.925.29-1.357zm17.717-7.24c-1.009-.269-2.024-.543-3.043-.777-.523-.122-.421-.493-.442-.85-.015-.365.077-.594.503-.66 1.902-.3 3.804-.63 5.706-.95l.122.223c-.705.92-1.415 1.84-2.115 2.77-.193.265-.421.326-.731.245zm-2.287-3.136l7.248-2.959c.056.046.112.097.167.143-.436.569-.872 1.143-1.308 1.713-.178.229-.376.417-.68.468-1.786.28-3.571.564-5.427.635zm8.217-3.04c.187-.26.4-.193.629-.04.664.452 1.334.894 2.237 1.494-1.634.27-2.953.488-4.439.732.452-.895 1.071-1.5 1.573-2.186zm1.679-.122c1.562.264 3.048.513 4.539.768-1.638.721-3.231.92-4.539-.768zm-.523-.595c.173-.396.421-.463.624-.58 3.551-2.104 7.117-4.193 10.657-6.318.583-.351 1.02-.417 1.644-.041 2.252 1.357 4.549 2.643 6.837 3.94.431.244.751.467.492 1.032-.223.483.041 1.144-.923 1.28-3.804.545-7.588 1.21-11.377 1.856-.71.122-1.365-.056-2.039-.167-1.953-.326-3.906-.661-5.915-1.002zm12.524.91c2.186-.371 4.372-.737 6.558-1.103.239-.04.482-.061.721-.076.208-.015.4.03.487.264.096.275-.016.447-.259.59-1.152.67-2.298 1.347-3.449 2.018-.386.224-.792.112-1.182.046-1.948-.33-3.891-.676-5.833-1.017.974-.488 1.973-.554 2.957-.722zm7.512.234c.411-.26.7-.254 1.035.132.613.707 1.44 1.083 2.353 1.073.675-.005.949.254 1.05.859.046.274.132.544.239.976-2.532-.3-4.951-.808-7.376-1.444.903-.534 1.816-1.047 2.699-1.596zm1.025-4.565c-.234.188-.416.371-.736.188-2.521-1.454-5.042-2.903-7.705-4.438 1.141-.676 2.151-1.26 3.15-1.866.309-.188.588-.157.923-.066 2.425.64 4.854 1.26 7.279 1.891.355.092.67.24.928.534 1.4 1.627 2.81 3.238 4.281 4.921-.679.437-1.374.295-2.024.356-.273.025-.339-.29-.456-.503-1.344-2.375-3.464-2.76-5.64-1.017zm9.251 1.713c1.766-.213 3.323-.407 4.88-.59.254-.03.467.097.675.234.943.63 1.892 1.26 2.84 1.881.35.229.528.437.249.88-.888 1.403-1.74 2.831-2.694 4.397-2.029-2.318-3.916-4.479-5.95-6.802zm6.802 6.355c.822-1.353 1.644-2.7 2.547-4.174.903.6 1.714 1.134 2.526 1.672.238.158.477.3.542.62.335 1.617.675 3.234 1.045 5.018-2.125-.452-4.098-.823-6.041-1.311-.969-.25-1.151-.946-.619-1.825zm4.342 7.376c.071.691-.177.92-.74 1.108-1.141.381-2.273.803-3.576 1.271.111-2.39.218-4.57.314-6.756.021-.458.188-.676.675-.57 1.882.412 3.769.814 5.686 1.226-.173.33-.436.37-.634.488-1.243.727-1.872 1.825-1.725 3.233zm11.631 21.565c-.964-2.491-1.851-4.855-2.637-7.31.73-.178 1.339-.077 1.932-.133.533-.05.71.194.71.702-.015 2.186-.005 4.367-.005 6.74zm-.005 1.5c.193.513-.015.706-.37.986-.376.3-.619.208-.944-.056-3.799-3.106-7.608-6.207-11.412-9.308-.051-.041-.056-.133-.132-.34.426 0 .811.004 1.202 0 2.475-.047 4.945-.092 7.421-.143.979-.02.989-.03 1.313.854.974 2.674 1.923 5.348 2.922 8.006zm-5.057-9.314c-2.506.051-5.017.061-7.522.122-.857.02-1.613-.07-2.186-1.001 2.698-2.374 5.564-4.637 8.48-7.092l2.805 7.742c-.537.305-1.075.22-1.577.23zm-9.693.02c-.36.204-.68.174-1.101.036.391-.58.72-.57 1.101-.035zm8.156-10.228c-.183-.427-.106-.701.294-1.016.903-.702.878-.738 1.816-.168.239.142.467.295.857.544-.806.686-1.547 1.311-2.414 2.049-.233-.59-.38-1.007-.553-1.409zm-9.668 8.937c.249.138.487.285.431.544-.035.163-.233.336-.441.33-.294-.01-.223-.264-.223-.442-.005-.188.015-.386.233-.432zm1.953 1.897c.36-.01.609.167.862.376 3.901 3.182 7.807 6.365 11.723 9.527.415.335.37.62.319 1.123-.137 1.327-.852 1.703-2.054 1.784-1.289.092-2.567.371-3.845.57-.421.066-.766.05-1.035-.392-2.592-4.22-5.199-8.433-7.801-12.648-.02-.03-.005-.076-.025-.34.659.005 1.258.015 1.856 0zm8.42 13.65c.802-.128 1.603-.23 2.404-.367 1.806-.31 1.801-.31 2.745 1.25.121.199.177.357.05.545l-3.317 4.84c-1.273-2.04-2.44-3.92-3.708-5.949.685-.117 1.253-.228 1.826-.32zm2.379 6.394c1.121-1.59 2.222-3.192 3.338-4.783.035-.051.142-.056.218-.082.329.798.553 8.805.289 11.733-1.37-2.19-2.587-4.143-3.804-6.095-.153-.244-.244-.478-.041-.773zm3.779-22.78c-.046.361-.096.722-.137 1.088-.101.89-.101.89-1.025.92-.203.006-.405 0-.608 0v.02c-.203 0-.406-.02-.609.006-.558.061-.872-.132-1.07-.702a328.93 328.93 0 00-2.486-6.857c-.182-.499-.106-.819.335-1.14a22.347 22.347 0 001.78-1.468c.295-.26.548-.265.868-.066.999.62 1.988 1.25 3.013 1.825.502.284.644.625.573 1.18-.233 1.733-.426 3.466-.634 5.195zm-2.901-8.764c1.024-1.108 2.231-1.896 3.312-2.882.75.595.974 1.18.786 2.013-.218.971-.269 1.978-.401 3.07-1.319-.66-2.455-1.402-3.697-2.2zm10.525 6.243c-2.034-.371-2.41-2.018-2.917-3.716 1.091.88 2.699 2.948 2.917 3.716zm-5.651-9.328c.487.64.654 1.301.837 2.16-.741-.645-1.228-1.18-.837-2.16zm2.861 7.798c-1.136-.681-2.095-1.276-3.074-1.835-.37-.214-.487-.493-.436-.9.132-.996.248-1.998.375-3.025 1.41.88 2.333 2.557 3.135 5.76zm-3.272-7.925c-.025.198-.04.442-.294.427-.203-.01-.335-.204-.34-.422-.005-.234.193-.366.37-.397.295-.05.259.203.264.392zm-.38-1.104c-.619.742-.619.742-1.268-.152.471-.107.842.086 1.268.152zm-1.07-.854c-.807.229-1.132-.259-1.37-.859.533.148.989.397 1.37.86zm.05 1.871c-1.136.94-2.171 1.774-3.175 2.643-.345.3-.629.27-.964.041a5.862 5.862 0 00-.725-.437c-.538-.254-.756-.539-.548-1.215.391-1.301-.081-2.455-1.106-3.64 1.836.387 3.444.692 5.032 1.083.71.178.949.935 1.486 1.525zm-3.566-4.26c.716.503 1.208 1.281 1.74 2.145-2.369-.503-4.621-.986-6.873-1.459-.36-.076-.543-.27-.614-.64-.284-1.429-.593-2.852-.953-4.54 2.404 1.601 4.585 3.004 6.7 4.494zm-7.471-9.329a7847.84 7847.84 0 016.071 7.463l-.162.193c-.487-.325-.979-.65-1.466-.976-.913-.605-1.795-1.25-2.739-1.794-.796-.458-1.248-1.058-1.369-1.978-.127-.955-.366-1.896-.553-2.841.066-.02.142-.041.218-.067zm-.031 3.595c-.187-.067-.319-.082-.405-.153-.655-.513-1.837-.752-1.892-1.505-.061-.813.761-1.59 1.405-2.455.421 1.434.659 2.745.892 4.113zm-1.283-4.586c-.603 1.007-1.095 1.82-1.648 2.745-1.04-.691-2.024-1.342-3.231-2.15a43.894 43.894 0 014.879-.595zm-9.379-2.679l8.324 2.15c-1.517.392-2.815.422-4.093.6-.289.041-.553-.01-.807-.178-1.166-.788-2.343-1.565-3.515-2.348.031-.071.061-.148.091-.224zm2.942 2.888c-1.608.208-2.987.376-4.367.564-.375.05-.604-.143-.827-.397-1.303-1.5-2.612-2.989-3.956-4.524 3.672.168 6.234 2.338 9.15 4.357zm-6.842-4.616c-2.81.147-4.139-1.642-5.377-3.57 1.745 1.16 3.49 2.314 5.377 3.57zm-7.817-4.693c.33-.198.523-.005.721.214.979 1.123 1.963 2.247 2.942 3.37-.041.066-.082.127-.122.194-2.196-.575-4.398-1.154-6.858-1.8 1.258-.747 2.293-1.357 3.317-1.978zm-1.486.305c-.786.468-1.572.94-2.364 1.403-.187.112-.385.061-.583.006-.578-.163-1.161-.31-1.745-.56 1.497-.564 3.064-.727 4.692-.849zm-3.368 1.897c-.867.732-1.897 1.169-2.825 1.764-.233.147-.457.056-.675-.072-.969-.564-1.942-1.118-3.079-1.769 2.339-.808 4.434-.955 6.579.077zm-11.027-2.98c2.176.57 4.352 1.134 6.66 1.734-.903.417-1.755.422-2.557.625-.233.061-.487.072-.71-.056-1.177-.67-2.353-1.352-3.53-2.028.051-.091.091-.183.137-.274zm-4.033 1.551c1.197.564 2.283.376 3.231-.539.234-.223.427-.315.736-.132.893.539 1.801 1.052 2.932 1.703-3.409.656-6.564 1.26-9.927 1.906.751-1.194 1.623-2.023 2.374-2.938.188-.229.421-.112.654 0zM140.9 8.871c2.374-1.377 4.758-2.74 7.137-4.107.172-.102.35-.204.532-.29.107-.05.223-.097.325.015.132.143.111.305 0 .432-.944 1.109-1.887 2.217-2.846 3.31-.122.137-.345.218-.532.254-1.776.346-3.556.676-5.382 1.017.162-.392.497-.478.766-.63zm-.563 1.083c1.598-.162 3.17-.59 4.753-.9l.136.183c-1.389 1.627-2.779 3.254-4.164 4.89-.243.29-.532.336-.867.255a3250 3250 0 01-6.285-1.505c2.262-1.154 4.012-2.679 6.427-2.923zm-4.104.788l.092.178c-.969.564-1.938 1.134-2.912 1.693-.269.152-.553.056-.827-.015-.664-.168-1.329-.33-1.993-.493-.005-.087-.005-.168-.01-.255 1.887-.37 3.768-.742 5.65-1.108zm-7.421 1.876c.127-.32.345-.366.68-.28.918.245 1.852.448 3.099.748-1.785 1.027-3.322 1.906-4.854 2.786-.056-.051-.106-.102-.162-.148.416-1.037.827-2.074 1.237-3.106zm-1.227.991l.193.148c-.502 1.276-.624 2.75-2.217 3.4-.776.316-1.471.82-2.201 1.241-.056-.05-.112-.101-.168-.157a1902.95 1902.95 0 014.393-4.632zm-1.278 3.915c-.614 1.525-1.233 3.055-1.842 4.585-.116.3-.329.453-.639.473-1.592.107-3.175.417-4.859.386 1.709-2.862 4.545-4.092 7.34-5.444zm-8.603 4.662c.609-.361 1.222-.707 1.836-1.063.046.061.092.122.142.183-.487.508-.974 1.022-1.466 1.53-.172.178-.355.366-.573.061-.182-.249-.284-.508.061-.711zm-3.114 5.525c.01-.564.35-.864.908-.95 1.471-.219 2.318-1.073 2.47-2.562.04-.402.187-.56.583-.595 1.76-.168 3.525-.356 5.519-.56-.558 1.394-1.01 2.512-1.456 3.64-.112.28-.304.468-.568.6-2.414 1.23-4.824 2.46-7.238 3.686-.097.05-.229.02-.376.03-.101-1.113.137-2.196.158-3.289zm.137 3.859c2.429-1.235 4.864-2.476 7.517-3.823-.634 2.166-1.207 4.092-1.77 6.024-.087.29-.3.473-.513.661-1.217 1.063-2.455 2.11-3.652 3.198-.401.366-.715.452-1.121.04a1.037 1.037 0 00-.532-.274c-.543-.092-.584-.453-.553-.895.086-1.413.162-2.831.228-4.245.015-.31.117-.539.396-.686zm37.575 59.428c.218 1.072.386 2.16.634 3.228.107.447-.01.691-.385.885-.218.111-.436.223-.629.37-.507.387-.898.453-1.456-.05-.872-.788-1.993-.966-3.069-.453-.629.3-.943.117-1.313-.345-.71-.88-1.456-1.729-2.328-2.756 2.642-.554 5.057-1.062 7.471-1.555.847-.173.913-.122 1.075.676zm-5.234-5.15c.025-.05.045-.102.071-.152 1.268.366 2.531.742 3.799 1.098.314.086.482.264.548.569.121.544.243 1.088.431 1.917-1.77-1.251-3.307-2.339-4.849-3.432zm39.914-2.837c.152-.03.314-.005.614-.005-.842 2.507-1.654 4.886-2.445 7.275-.152.468-.421.61-.903.58-3.886-.24-7.766-.458-11.651-.687-2.105-.122-4.205-.254-6.31-.381-.812-.05-1.238-.498-1.197-1.276a.447.447 0 01.233-.391c.807-.458 1.557-1.012 2.501-1.2 6.386-1.302 12.772-2.613 19.158-3.915zm-17.971 2.939c5.234-3.137 10.504-6.218 15.866-9.39.928 1.947 1.831 3.833 2.774 5.821-6.269 1.281-12.406 2.537-18.539 3.787-.03-.07-.066-.142-.101-.218zm-3.86 4.977c.121-.697.542-.687 1.055-.656 1.821.107 3.642.198 5.463.305 3.966.234 7.933.473 11.899.722.35.02.736-.071 1.116.28-.578 1.728-1.222 3.466-1.74 5.246-.314 1.082-.857 1.87-1.887 2.353-.801.377-1.45 1.261-2.308 1.256-.791-.005-1.577-.564-2.363-.89-3.368-1.387-6.726-2.821-10.114-4.153-1.274-.498-1.517-1.708-2.171-2.643-.142-.204.071-.377.213-.509.39-.36.745-.798.837-1.311zm9.383 12.282c-.563.32-1.187.412-1.826-.036-.613-.432-1.349-.569-2.084-.33-.391.127-.594-.005-.787-.331-1.268-2.16-2.546-4.316-3.702-6.664 3.976 1.642 7.953 3.284 12.193 5.038-1.389.859-2.566 1.631-3.794 2.323zm3.942-1.851c.725-.406 1.268.127 2.135.529-1.522.285-2.719.717-4.038.686.634-.406 1.248-.844 1.903-1.215zm-9.283 1.225c.239.407.406.717-.03 1.16-.37.376-.614.63-1.207.422-4.241-1.47-8.497-2.908-12.752-4.332-.436-.147-.67-.36-.756-.823a79.605 79.605 0 00-.71-3.452c-.091-.387.005-.605.335-.793 1.156-.671 2.302-1.358 3.449-2.039.172-.101.34-.223.568-.198.218.081.446.163.675.254 1.831.758 3.657 1.53 5.493 2.273.472.188.827.442 1.085.9 1.273 2.221 2.562 4.422 3.85 6.628zm-4.895-8.016c-1.876-.778-3.753-1.556-5.67-2.354.35-.442.644-.671 1.039-.24.939 1.033 2.09 1.313 3.404.957.33-.092.538-.01.695.28.213.386.436.767.654 1.153-.04.066-.081.132-.122.204zm-5.27-3.447c-.101.346-1.014.798-1.43.64a70.006 70.006 0 01-3.135-1.286c-.319-.137-.72-.157-.984-.6 1.218-.259 2.359-.503 3.505-.737.315-.066.639-.101.954-.168.253-.055.482.016.705.102.101.036.436 1.876.385 2.049zm-1.628 1.103c-1.375.819-2.516 1.5-3.814 2.272-.416-1.372-.624-2.694-.898-4.209 1.577.646 3.013 1.236 4.712 1.937zm-3.495 7.03c-.598.006-.979-.259-1.4-.335-.674-.127-.994-.468-.852-1.174.01-.04-.01-.082 0-.122.091-.442-.431-.9-.122-1.26.381-.443.944-.702 1.588-.941.36 1.29.563 2.531.786 3.833zm-2.034-.025c.071.036.152.051.228.077 1.943.554 1.953.554 2.349 2.506.335 1.657.644 3.314.969 5.007-.502-.03-.731-.351-1.01-.559-1.547-1.179-3.079-2.374-4.62-3.564-.224-.173-.472-.325-.66-.539-.375-.432-.254-1.052.274-1.24.791-.29 1.43-.747 1.867-1.474.157-.24.324-.351.603-.214zm2.968 1.713c-.041-.193-.087-.396.101-.671 4.235 1.444 8.501 2.893 12.767 4.347v.229l-4.951 1.144c-1.886.442-3.773.899-5.665 1.331-.837.189-.893.148-1.066-.665a830.655 830.655 0 01-1.186-5.715zm13.431 4.281c.37 1.672.37 1.672-.948 2.471-2.045 1.24-4.089 2.485-6.133 3.721-.847.513-.862.513-1.517-.158-1.014-1.042-2.018-2.094-3.185-3.304 4.068-.941 7.928-1.835 11.783-2.73zm-1.212 3.208c.345-.209.715-.392 1.035-.631.512-.386.882-.432 1.45.051 1.086.925 2.496.839 3.566-.046.817-.671.817-.671 1.704-.198.203.107.447.173.614.473-1.354 1.474-2.719 2.964-4.088 4.453-2.176 2.359-2.176 2.364-5.28 2.883-2.516.422-1.684.671-3.516-1.159-.598-.6-1.176-1.221-1.876-1.947 2.242-1.363 4.316-2.619 6.391-3.879zm8.212-1.144c-.279-.168-.578-.295-.862-.453-.178-.096-.386-.203-.355-.442.081-.656.06-1.296-.117-1.932-.051-.178.096-.294.238-.381.208-.127.406-.295.634-.351a528.47 528.47 0 015.534-1.301c.031.081.056.163.086.249-1.374 1.49-2.754 2.969-4.108 4.474-.35.376-.654.376-1.05.137zm5.945-4.753c.197-.214.416-.402.71-.443 2.277-.315 4.56-.625 6.771-.925.284.336.122.549.031.758-.71 1.637-1.441 3.263-2.141 4.905-.187.432-.456.737-.872.951-1.365.707-2.719 1.444-4.078 2.166-.284.152-.553.315-.903.127-1.426-.748-2.861-1.475-4.383-2.252 1.689-1.83 3.277-3.559 4.865-5.287zm-.355-1.119c-.396-.178-.802-.351-1.451-.63.948-.595 1.689-1.058 2.541-1.591.025.818-.34 1.398-.517 2.018-.086.3-.31.32-.573.203zm-16.835-15.307c-.295.478-.523.85-1.223.575-.512-.204-1.136-.178-1.664.056-.497.218-.715 0-.974-.376-1.126-1.668-1.136-1.658.381-2.898 2.916-2.38 5.833-4.758 8.755-7.127.304-.25.558-.575 1.237-.753-.918 1.48-1.699 2.75-2.485 4.016-1.344 2.171-2.693 4.332-4.027 6.507zm-4.459.204c.152.345.669.62.375 1.047-.334.488-.725.96-1.435.986-.675.026-1.268-.234-1.882-.417-.299-.086-.659-.056-.989-.457.877-.717 1.73-1.398 2.561-2.105.355-.3.619-.33.863.117.152.285.38.539.507.829zm-2.876 2.414l-2.993.61c.939-1.631 1.867-1.514 2.993-.61zm-4.225.697c-.178-.864-.457-1.49-.421-2.262.771.168 1.491.325 2.318.727-.65.523-1.197.966-1.897 1.535zm-17.13 13.395c-.258-.279-.319-.518-.101-.854.152-.234.243-.513.314-.788.295-1.149.285-1.154 1.411-1.326 2.039-.32 4.083-.626 6.117-.966.563-.092 1.004.01 1.451.376 1.1.9 2.236 1.749 3.357 2.618.325.249.594.488.614.971.086 1.906.218 3.813.33 5.658.091.478-.162.651-.512.727-1.821.391-3.642.768-5.458 1.179-.401.092-.609-.106-.832-.345-2.232-2.42-4.454-4.84-6.691-7.25zm6.244 7.839c-.892.199-1.826.407-2.759.61-.355.077-.624-.122-.898-.294-1.435-.91-2.871-1.836-4.316-2.735-.381-.234-.634-.463-.482-.966.38-1.281.735-2.573 1.106-3.859.121-.427.334-.701.74-.254 2.212 2.425 4.52 4.768 6.635 7.28.02.02-.005.071-.026.218zm3.262-11.875c.664-.209.664-.209.806.676-.309-.183-.639-.335-.806-.676zm-.675-5.694c.508.773 1.177 1.439 1.796 2.135.259.29.304.524.041.84-.29.345-.442.762-.523 1.21-.056.294.051.726-.385.792-.421.061-.868.315-1.284-.005-2.034-1.57-4.068-3.147-6.305-4.88 1.583-.34 2.927-.554 4.226-.93 1.065-.306 1.805-.117 2.434.838zm-1.121 5.028c-.055.346-.284.35-.461.376-2.11.34-4.22.676-6.336.997-.684.106-.867-.046-.705-.687.457-1.749.969-3.482 1.492-5.353 2.1 1.632 4.068 3.162 6.01 4.667zm-7.902.229c-.573-.361-.979-.824-1.532-1.037-.284-.112-.269-.382-.244-.62.142-1.165.295-2.324.442-3.483.035-.27.132-.493.451-.401.731.208 1.527.132 2.278.554-.452 1.621-.903 3.243-1.395 4.987zm-1.563 5.18c-.177 1.347-.649 2.577-1.014 3.894-1.015-.351-1.75-1.093-2.648-1.515-1.714-.808-2.764-2.125-3.353-3.909-.365-1.103-.908-2.145-1.445-3.396 1.303.335 2.424.64 3.55.915.325.081.437.219.472.569.264 2.791 1.623 3.864 4.438 3.442zm-.705-6.873c-.01.081-.015.168-.055.234-.198.325-1.735.356-1.953.015-1.06-1.657-2.095-3.335-3.14-5.002.061-.072.122-.138.183-.209 1.663.29 3.327.575 4.986.864.329.056.476.27.431.61a444.46 444.46 0 00-.452 3.488zm-2.257.808c-.314.34-.674.626-.893.997-.314.549-.654.701-1.278.498-.999-.326-2.029-.564-3.053-.814-.34-.081-.599-.208-.741-.544-.969-2.272-1.948-4.544-2.922-6.817-.01-.025.026-.066.071-.183 1.487.265 2.993.54 4.5.793.436.072.715.295.943.666 1.111 1.805 2.237 3.59 3.373 5.404zm-9.069-7.453a1366.04 1366.04 0 001.912-3.97c1.02 1.622 1.943 3.096 3.023 4.82-1.8-.204-3.292-.499-4.935-.85zm-.152-.859c-.076.01-.152.02-.229.036l-2.414-10.355c.568.391.751.904 1.03 1.337.999 1.57 1.968 3.162 2.982 4.722.294.453.36.834.086 1.332-.522.961-.973 1.952-1.455 2.928zm1.532-4.9c-1.431-2.263-2.831-4.545-4.276-6.797-.503-.783-.614-1.673-.792-2.532-.121-.564.371-.87.923-.605 2.623 1.261 5.24 2.542 7.949 3.864-1.111 2.298-2.156 4.448-3.191 6.588-.421.041-.477-.3-.613-.518zm3.19-6.92c-1.897-.914-3.784-1.84-5.676-2.76-.147-.07-.289-.152-.436-.213-.933-.366-1.684-.707-1.299-2.064.3-1.052-.274-2.09-1.146-2.786-.543-.432-.507-.788-.233-1.322.679-1.326 1.319-2.679 1.963-3.995.385.056.547.31.74.508 2.755 2.745 5.488 5.516 8.273 8.23.538.524.589.93.234 1.551-.442.773-.787 1.601-1.182 2.394-.411.84-.426.85-1.238.458zm-7.284-13.339c-.761 1.546-1.506 3.101-2.252 4.652-.751-2.969-1.938-5.785-1.704-9.085 1.369 1.363 2.587 2.578 3.809 3.793.173.183.284.36.147.64zm-3.282 4.58c-.233.026-.405-.09-.41-.32-.016-.762-.006-1.525-.006-2.287.041-.005.082-.015.122-.02.183.732.365 1.459.538 2.19.046.209.035.412-.244.438zm-.04 7.169c1.374-.27 1.359-.3 2.049.884.188.32.335.646.416 1.002.883 3.782 1.765 7.564 2.643 11.346.035.153.02.316.03.61-1.304-.859-2.516-1.652-3.728-2.45-.812-.534-1.598-1.103-2.435-1.596-.532-.315-.69-.697-.608-1.291.213-1.566.38-3.137.573-4.703.121-1.006.279-2.003.375-3.014.051-.458.172-.687.685-.788zm-8.588-3.345c1.035-2.115 2.055-4.235 3.176-6.538.882 1.2 1.689 2.283 2.48 3.38.274.382-.137.58-.299.83-.964 1.52-.878 3.278.238 4.509.36.396.771.742 1.283.9.548.167.629.508.563 1.016-.344 2.69-.669 5.384-1.024 8.276-1.425-.95-2.729-1.82-4.038-2.689-.228-.152-.274-.386-.334-.62-.716-2.664-1.431-5.333-2.156-7.997-.107-.381-.061-.717.111-1.067zm-.263-.651c-.026.056-.132.076-.279.153-.518-1.963-1.091-3.895-1.517-5.857-.167-.768-.015-1.611.03-2.42.082-1.357.193-2.714.295-4.056.334-.056.395.182.507.33 1.207 1.627 2.409 3.259 3.611 4.89.239.32.492.59.249 1.078-.989 1.947-1.928 3.92-2.896 5.882zm7.212-2.882c-.558.208-.862.193-1.207-.32-.608-.91-1.283-1.775-1.937-2.654-.234-.31-.371-.595-.173-.997.969-1.957 1.912-3.924 2.978-6.105.598 2.084.968 3.904 1.014 5.785.025 1.057.03 2.115.112 3.167.045.64-.193.9-.787 1.124zm-.238-32.54c.02.589-.203.823-.776.99-2.004.6-2.82 2.46-1.856 4.316.294.57.213.86-.188 1.246-.376.36-.705.767-1.223 1.342-.573-1.82-1.044-3.325-1.526-4.83-.137-.421-.016-.788.162-1.169.568-1.21 1.126-2.425 1.659-3.655.208-.478.507-.798.973-1.017.939-.447 1.862-.93 2.902-1.453.142.823 0 1.489-.041 2.155-.045.696-.106 1.388-.086 2.074zm-3.576 8.021c.462-.458.908-.925 1.354-1.398.224-.234.432-.249.751-.137 1.41.493 1.4.478 1.466 1.967.132 3 .284 5.999.421 8.993.046.992.198 1.998-.482 3.157-1.268-4.062-2.46-7.89-3.672-11.707-.112-.356-.107-.61.162-.875zm4.388 8.297c-.122-2.878-.218-5.76-.371-8.638-.035-.655.208-.94.797-1.128.314-.102.522-.117.735.152.426.54.868 1.073 1.314 1.597.208.244.238.488.152.788-.771 2.633-1.537 5.266-2.313 7.92-.355-.188-.304-.458-.314-.691zm1.501-9.964c-.249-.275-.101-.504.071-.758.644-.945.751-1.962.264-3-.183-.386-.041-.594.228-.828 1.101-.95 2.196-1.906 3.51-2.76-.857 2.938-1.714 5.877-2.607 8.947-.675-.508-1.02-1.103-1.466-1.601zm-2.496-15.999c.082-.172.183-.386.432-.3.294.102.294.387.223.6-.228.661-.802 1.032-1.415 1.409.258-.575.502-1.15.76-1.709zm.604 1.419c-.061 1.108-.122 2.064-.162 3.02-.015.345-.259.472-.518.604-.826.417-1.653.84-2.642 1.342.512-2.135 1.618-3.65 3.322-4.966zm-3.53 3.7c-.274 1.23-.786 2.146-2.1 2.36.345-.748 1.014-1.51 2.1-2.36zm-1.076 2.573c-.634 1.378-1.141 2.49-1.709 3.726-1.045-2.974-1.344-2.308 1.709-3.726zm-2.85 2.933c.984.946.958 1.805 0 2.959v-2.959zm1.06 2.45l1.41 4.52a.504.504 0 01-.147.549c-.933.874-1.867 1.739-2.881 2.684.193-2.618-.132-5.272 1.618-7.753zm-1.593 8.76c1.111-1.048 2.227-2.09 3.358-3.147 1.065 3.38 2.059 6.848 3.256 10.248.584 1.653.594 3.056-.339 4.57-.827 1.343-1.416 2.832-2.116 4.25-.035.072-.091.133-.137.199-.319.081-.421-.193-.552-.371-1.284-1.729-2.547-3.472-3.845-5.19-.32-.422-.411-.85-.376-1.358.193-2.837.371-5.678.553-8.515.021-.244 0-.503.198-.686zm-.497-4.433c.051.02.101.045.152.066-.061 1.123-.132 2.242-.177 3.365-.026.59-.183 1.088-.65 1.5-.908.803-1.785 1.637-2.683 2.47 1.106-2.445 2.232-4.92 3.358-7.401zm-.203 5.607l-.538 7.768c-.076.035-.147.071-.223.102l-3.19-4.322c1.349-1.21 2.658-2.389 3.951-3.548zm-1.172 14.046c-.771-2.872-1.547-5.744-2.318-8.617l.224-.117c.826 1.129 1.658 2.253 2.475 3.386.147.203.142.458.127.707-.097 1.535-.112 3.08-.508 4.641zm.421 4.098c.563.945.563 1.845.893 2.623.705 1.652.563 3.192-.441 4.687-.335.498-.548 1.083-.827 1.621-.03.056-.137.077-.248.138.202-2.97.405-5.907.623-9.07zm-.36 10.91c-.334-.22-.182-.484-.061-.738.655-1.342 1.314-2.68 1.984-4.047.482.661 1.978 6.014 2.054 7.407-1.375-.91-2.678-1.764-3.977-2.623zm1.081 1.31l1.156.748c2.349 1.55 2.349 1.55 2.912 4.438-.857-.707-3.693-4.306-4.068-5.185zm6.812 11.622c-.599.107-.578-.447-.685-.803-.243-.85-.456-1.713-.68-2.568l.153-.152c.502.625.999 1.256 1.501 1.88.132.163.233.347.203.555-.056.412.127.976-.492 1.088zm-2.683-8.881c1.268.834 2.308 1.52 3.357 2.201.3.198.427.442.381.813-.147 1.154-.269 2.308-.416 3.62-2.105-1.764-3.054-3.91-3.322-6.634zm3.51 8.54c-.005-.117.086-.274.208-.239.36.107.563.371.618.748-.441.081-.811.05-.826-.509zm.639-.584c-.335-.412-.442-.803-.355-1.332.192-1.19.309-2.39.482-3.793l6.857 4.53c.249.163.421.371.538.635.974 2.227 1.948 4.448 2.912 6.68.025.056-.026.148-.066.315-1.867-.477-3.729-.955-5.595-1.423-.391-.097-.599-.391-.827-.676-1.314-1.652-2.617-3.305-3.946-4.936zm3.358 5.109c-1.258-.102-1.334-.209-.913-1.276.339.401.725.747.913 1.276zm2.566 3.462c-1.253-.798-2.5-1.597-3.753-2.39-.198-.127-.259-.305-.163-.518.107-.24.305-.203.513-.158.958.209 1.882.432 2.424 1.408.3.54.756.987 1.147 1.475l-.168.183zm-.903-2.298c1.213.107 2.156.452 3.105.707.928.249 2.069.182 2.718.864.604.635.812 1.652 1.187 2.501.371.834.731 1.672 1.157 2.633-.584-.091-.878-.376-1.202-.579-.792-.488-1.537-1.068-2.364-1.475-2.029-.991-3.109-2.862-4.601-4.651zm4.144 5.19l.132-.178c1.355.86 2.709 1.719 4.063 2.573.218.137.365.32.467.544.827 1.881 1.643 3.767 2.293 5.765-2.318-2.898-4.637-5.801-6.955-8.704zm8.238 9.893l-2.83-6.476c.06-.046.121-.087.187-.133 1.213.768 2.425 1.546 3.642 2.303.284.178.375.387.279.707-.35 1.189-.69 2.379-1.03 3.574-.086.005-.167.015-.248.025zm.558.727c.446-1.586.832-2.964 1.268-4.499 1.659 1.052 3.206 2.028 4.971 3.147-2.176.473-4.114.895-6.239 1.352zm1.486.361l-.015-.168c1.653-.351 3.302-.706 4.955-1.057.249-.051.493-.046.706.091 1.263.793 2.521 1.592 3.697 2.547-3.114-.473-6.229-.94-9.343-1.413zm6.361-1.281c.015-.086.03-.168.04-.254.812-.188 1.623-.371 2.43-.565.279-.066.462.072.634.255 1.085 1.179 2.171 2.353 3.398 3.68-1.09 0-1.902-.132-2.657-.64-1.258-.854-2.557-1.653-3.845-2.476zm6.051 3.848c1.162-.381 1.527.412 2.141 1.139-.924-.168-1.441-.691-2.141-1.139zm2.653.702c-.335.061-.497-.168-.548-.509.122-.02.238-.061.355-.061.157 0 .32.031.472.046.188.351-.076.483-.279.524zm1.04-.905c-.188.01-.269.02-.35.02-1.431 0-2.506-.61-3.378-1.764-.7-.935-1.573-1.738-2.359-2.608-.046-.051-.031-.152-.066-.335l5.889-1.256c.01 2.044.325 3.981.264 5.943zm-.213-12.516c.887.274 5.402 3.721 6.178 4.707-1.877.407-3.718.804-5.722 1.241-.34-2.049-.132-4.001-.456-5.948zm1.395 12.78c-.467-.107-.665-.3-.685-.808-.051-1.54-.168-3.081-.234-4.626-.035-.885-.015-.89.883-1.088 1.659-.366 3.327-.712 4.981-1.093.396-.092.69-.066.984.239 1.167 1.23 2.349 2.445 3.601 3.747-1.602.976-3.124 1.896-4.641 2.816-2.216 1.357-2.429 1.383-4.889.813zm1.405 2.166c1.318-1.668 2.708-1.083 4.063-.758-1.258.316-2.516.616-4.063.758zm2.556-1.708c.076-.31.426-.371.68-.529 1.516-.935 3.048-1.845 4.57-2.776.355-.218.669-.447 1.06-.025.877.946 1.78 1.861 2.795 2.913-3.14.61-6.062 1.571-9.105.417zm5.757 1.001c.107-.381.375-.345.599-.386l1.668-.29c1.715-.3 1.984-.168 2.973 1.464-1.77-.264-3.5-.528-5.24-.788zm6.559.382c-.274.305-.513.325-.797.015-.406-.437-.827-.859-1.344-1.398a13.785 13.785 0 013.921-.554c-.593.645-1.192 1.286-1.78 1.937zm1.481-.483c.725-1.739 2.095-2.313 3.88-2.075-1.298.692-2.587 1.383-3.88 2.075zm2.054-2.634c1.451-1.576 2.805-3.075 4.2-4.545.553-.579.954-1.56 1.73-1.601.674-.035 1.384.58 2.069.92.715.356 1.425.732 2.146 1.108-.142.438-.497.483-.761.631-.781.432-1.598.803-2.349 1.276-2.105 1.317-4.367 2.094-7.035 2.211zm11.727-2.353c-.03.32-.299.355-.532.396-1.618.305-3.242.605-4.86.905-.015-.071-.035-.142-.05-.219 1.415-.757 2.84-1.504 4.25-2.277.507-.28.863.01 1.192.279.31.265.031.61 0 .916zm3.637-2.924c-.117.346-.304.544-.705.499-.852-.087-1.598.152-2.196.793a.907.907 0 01-.289.208.353.353 0 01-.432-.122c-.106-.163-.005-.29.158-.376.502-.264.994-.539 1.496-.803.71-.382 1.415-.758 2.125-1.134.056.056.107.112.163.168-.112.259-.229.508-.32.767zm.345.732c.183-2.125 1.775-2.851 3.424-3.533-.558 1.053-2.673 3.239-3.424 3.533zm4.971-5.058c-.979.859-2.298 1.327-3.444 1.957-.35-.284-.081-.488-.005-.676.639-1.489 1.313-2.969 1.937-4.463.208-.493.467-.773 1.04-.839 1.547-.178 3.084-.422 4.621-.64.036.066.066.137.102.203-1.406 1.5-2.714 3.111-4.251 4.458zm1.76-1.072c1.045-1.124 2.095-2.242 3.14-3.366.193-.208.39-.401.7-.442 1.4-.183 2.8-.376 4.271-.575-.574.682-4.87 3.076-8.111 4.383zm4.043-4.311c1.161-1.261 2.155-2.334 3.195-3.462.893.828 1.613 1.667 2.425 2.669-1.923.269-3.632.513-5.62.793zm5.889-1.317l-2.09-2.293c-.168-.183-.132-.376.025-.534.685-.686 1.263-1.474 2.034-2.074.031-.025.137.041.234.077-.041 1.52-.011 3.05-.203 4.824zm.654-20.35a271.887 271.887 0 00-.218 7.92c-.01.636-.264.93-.791 1.19-1.461.707-2.897 1.454-4.337 2.196-.178.092-.33.219-.497.33l.289.245c1.694-.824 3.388-1.642 5.123-2.481v4.692c0 .27-.168.447-.33.625-.69.743-1.405 1.464-2.069 2.227-.376.427-.624.335-.964-.036-.573-.62-1.055-1.337-1.75-1.845l-.487.503c.812.051 1.06.798 1.506 1.271 1.091 1.16.995.819-.03 1.957-.38.422-.771.829-1.157 1.24-1.673 1.795-1.673 1.795-4.088 2.095-1.07.132-2.145.275-3.342.432.395-1.586 1.278-2.862 1.704-4.31-.081-.112-.162-.22-.244-.331-.755 1.296-1.247 2.72-1.871 4.077-.178.392-.355.702-.832.763-2.242.3-4.479.615-6.893.95.213-1.072.568-1.952.913-2.826.137-.346.552-.458.857-.656 1.897-1.235 3.885-2.328 5.716-3.67-.091-.082-.182-.158-.269-.24-1.613.84-3.089 1.897-4.646 2.827-.34.204-.644.488-1.065.575-.274-.265-.051-.514.03-.753.487-1.454.979-2.908 1.476-4.362.35-1.026.356-1.021 1.406-1.006.202.005.4-.015.603-.026.543-.406 1.182-.086 1.76-.244-1.009-.33-2.079-.091-3.221-.325.873-2.588 1.725-5.104 2.597-7.702.482.204.695.56.954.844.989 1.078 1.958 2.171 2.947 3.249.233.259.451.488.081.798.396.05.487-.356.756-.498-1.436-1.642-2.871-3.28-4.372-4.992 1.562-1.18 3.099-2.339 4.631-3.498l-.29-.275c-1.389.834-2.612 1.897-3.931 2.827-.72.508-.735.513-1.116-.275-.669-1.382-1.323-2.775-1.978-4.168-.421-.895-.411-.89.401-1.398 1.405-.87 2.886-1.617 4.23-2.588a71.318 71.318 0 00-.284-.239l-5.006 2.827c-1.334-2.816-2.638-5.557-3.931-8.307-.046-.096.01-.239.015-.356-.208.071-.411.143-.614.214 1.248 2.643 2.496 5.282 3.734 7.925.38.809.38.824-.401 1.286-5.478 3.239-10.956 6.472-16.429 9.715-1.015.6-2.161.58-3.242.895-.142-.478.158-.691.31-.94 2.369-3.834 4.753-7.651 7.116-11.49a4.964 4.964 0 011.131-1.255c2.176-1.76 4.347-3.528 6.513-5.302.31-.255.594-.544.893-.814-.315-.239-.756-.213-1.04-.513-.832-.102-1.638.198-2.475.218-.188-.417.238-.635.253-.966a10.747 10.747 0 01-.223-.274c-.588 1.18-1.582 1.469-2.835 1.596-3.622.361-7.233.88-10.845 1.332-.401.05-.801.056-1.222.081.02-.411.36-.416.578-.528 3.196-1.571 6.406-3.117 9.592-4.713.573-.29 1.014-.26 1.572.015 1.045.519 2.054 1.129 3.17 1.505.614-.473.198-.722-.208-.97-.01.131-.111.279-.202.238a88.847 88.847 0 01-2.704-1.322c-.046-.025 0-.223.005-.34l-.294-.234c-.345.091-.66.168-1.04-.026-3.875-1.947-7.761-3.868-11.641-5.795-.101-.05-.228-.102-.198-.3 2.156.275 4.322.554 6.493.824 2.287.284 4.58.554 6.873.833.167-.274.593-.127.73-.452-1.861.025-3.677-.392-5.508-.6-2.795-.32-5.585-.722-8.38-1.083-.238-.03-.482-.005-.72-.005 0 .295.005.595-.315.758.68.523 1.487.808 2.242 1.19 3.008 1.504 6.026 2.983 9.029 4.483.355.178.756.285 1.055.615-.056.35-.401.361-.619.473-3.667 1.805-7.349 3.589-11.017 5.394-.588.29-1.197.437-1.846.533-1.557.224-3.14.27-4.677.656.34.097.741-.056 1.035.234.852.061 1.674-.33 2.673-.147-.816.539-1.552.976-2.419 1.159.203.31.152.732.456.996-.045-.36.071-.595.431-.762 1.177-.544 2.323-1.14 3.5-1.683.715-.33 1.512-.254 2.273-.35 4.174-.545 8.354-1.053 12.528-1.562.305-.035.629-.137 1.035.087-.436.722-.908 1.423-1.298 2.16-1.35 2.552-3.226 4.591-5.534 6.335-2.942 2.221-5.737 4.636-8.603 6.964-.309.255-.588.56-1.045.707-1.557-2.48-3.104-4.947-4.656-7.417a.76.76 0 01-.102-.58c-.152.168-.304.33-.461.498a3947.91 3947.91 0 004.083 6.62c.253.411.502.828.791 1.306-1.065.87-2.09 1.723-3.135 2.547-.502.396-3.251-.244-3.545-.803-.071-.138-.091-.31-.127-.468-.776-3.315-1.547-6.63-2.323-9.949-.051-.228-.188-.468.086-.65-.218-.524-.497-.097-.751-.051.853 3.665 1.705 7.325 2.603 11.199-2.055-.605-3.932-1.068-5.732-1.734-.847-.31-1.547-1.021-2.323-1.535-.437-.29-.817-.666-1.319-.854-.117.204-.426.25-.436.539.299-.183.522-.015.75.158.477.355.959.701 1.466 1.072-.395.234-.705-.173-1.045-.056a5.786 5.786 0 01-.279.24c.066.045.122.126.193.136 2.151.346 3.87 1.54 5.559 2.807 1.121.844 2.288 1.632 3.607 2.572-2.186.457-4.144.89-6.112 1.266-.741.142-1.542.63-2.217.28-.604-.316-.984-1.048-1.476-1.582-.487-.533-.877-1.159-1.461-1.606-.081.086-.162.173-.238.26.822 1.031 1.648 2.058 2.577 3.222-1.517.32-2.882.62-4.256.9-1.456.295-1.456.29-2.014-1.144-.233-.605-.477-1.204-.71-1.81-.304-.798-.304-.803.517-1.153-.507-.087-.938.02-1.237.472.446 1.246.893 2.491 1.339 3.742-.112.036-.198.097-.259.081-.7-.183-1.674.036-2.049-.513-.391-.58.041-1.464.096-2.217.031-.442.112-.88.173-1.322-.198-.066-.401-.137-.599-.203.173 1.108-.218 2.17-.264 3.259-.015.315-.192.493-.573.422-1.75-.326-3.505-.62-5.26-.93-.34-.062-.578-.234-.761-.534a257.227 257.227 0 00-2.84-4.535c-.249-.386-.274-.712-.066-1.129.974-1.962 1.928-3.93 2.871-5.907.218-.452.467-.625.933-.34.381.228.776.427 1.167.64.005-.178.015-.35.02-.528-.025-.031-.045-.067-.081-.092-.426-.305-1.136-.33-1.309-.793-.203-.534.345-1.027.568-1.535.29-.656.624-1.292 1.02-2.105.573.956.715 1.896 1.222 2.654l.244-.305-.725-2.14c.654.162.989.655 1.491.833.101-.066.208-.132.309-.198-.527-.422-1.06-.844-1.684-1.342.568-.168 1.142-.539 1.497-.142.324.365.755.94.36 1.575.263.326.482.026.72-.05-.152-.54-.309-1.078-.502-1.75 2.795-.406 5.539-.808 8.42-1.224-.421 1.27-1.334 2.12-1.77 3.223.076.101.152.198.228.3.751-.91 1.293-1.958 1.912-2.954.299-.483.639-.742 1.238-.808 1.527-.173 3.043-.448 4.57-.661.974-.137.979-.122 1.227.829.061.233.046.487.234.676l.253-.316c-.005-.117.011-.244-.01-.355-.213-1.109-.213-1.109.994-1.104.295-.152.046-.325.021-.493-.345-.106-.726.132-1.076-.127.751-2.587 1.832-5.073 2.521-7.686l-.253-.285c-.954 2.186-1.649 4.469-2.364 6.736-.35 1.113-.827 1.667-2.044 1.733-1.431.077-2.846.382-4.291.59-.005-.549.314-.839.522-1.174 1.578-2.547 3.165-5.084 4.748-7.626.188-.305.345-.635.512-.95-.081-.092-.157-.183-.238-.275-1.339 1.835-2.435 3.828-3.662 5.74a145.697 145.697 0 00-2.319 3.72c-.294.489-.634.753-1.227.83-2.531.325-5.057.706-7.583 1.067-.35.05-.715.234-.944-.234-.233-.478.026-.742.366-1.017 1.958-1.575 3.91-3.167 5.863-4.753 2.866-2.323 5.737-4.651 8.608-6.974-.112-.117-.223-.23-.33-.346-4.915 3.97-9.83 7.945-14.816 11.977-.446-.697-.588-1.449-.898-2.13-1.019-2.212-1.41-4.525-1.324-6.965.056-1.611.092-3.243-.182-4.85-.016.626-.026 1.251-.041 1.876-.005.305.056.636-.218.875v3.634c-.056.016-.112.036-.167.051-.837-2.13-1.674-4.265-2.516-6.395-.086.092-.173.183-.254.275.68 2.338 1.644 4.575 2.475 6.857.34.93.584 1.85.579 2.837-.005 1.688 0 3.376 0 5.135-.386-.138-.594-.443-.842-.682a5484.941 5484.941 0 01-7.68-7.65c-.766-.763-.766-.768-.294-1.75.741-1.535 1.486-3.07 2.232-4.6.172-.356.279-.808.842-.681-.264-.29-.685-.224-.984-.437-.492 1.59-1.38 2.999-2.049 4.509-.259.58-.569 1.139-.924 1.845-1.435-1.454-2.779-2.786-4.088-4.153a1.545 1.545 0 01-.01-2.166c1.638-1.677 3.297-3.34 4.945-5.002.178-.183.376-.376.442.081.4-.391.182-.87.187-1.316-1.699 1.51-3.215 3.207-4.849 4.788-.314.305-.558.692-1.075.91-.183-.34-.152-.701-.061-1.021.923-3.157 1.862-6.304 2.805-9.456.02-.071.091-.132.167-.239 1.061.956 1.75 2.227 2.795 3.182l.234-.264c-.695-1.098-1.593-2.039-2.415-3.04-.37-.453-.482-.829-.299-1.423.928-3.025 1.801-6.07 2.688-9.105.081-.275.112-.57.335-.768.959-.859 1.892-1.754 3.023-2.567.624 1.677 1.212 3.264 1.801 4.855.538 1.444 1.03 2.908 1.628 4.331.604 1.439.162 2.628-.791 3.66-1.41 1.515-2.902 2.954-4.352 4.428-.168.173-.31.366-.467.554.269.066.517.458.822.061-.132-.112-.061-.218.025-.305 1.248-1.245 2.496-2.49 3.855-3.843-.086 1.296-.74 2.288-.918 3.406l.249.325c.618-1.321.963-2.74 1.465-4.102.163-.437.208-.971.898-1.164l.183 5.058c.02.529-.533.676-.715 1.073.132.02.263.045.395.066.112.03.32.056.32.096.04.605.304 1.23-.152 1.79.096.498.487.823.71 1.25-.01-.935.02-1.87-.041-2.796-.045-.67.157-1.144.67-1.576a55.907 55.907 0 003.17-2.836c.512-.498.938-.554 1.588-.275 3.454 1.485 6.933 2.918 10.403 4.367.335.137.68.25 1.02.376.121-.157.294-.183.476-.193-2.394-1.184-4.9-2.094-7.349-3.152-1.593-.691-3.206-1.347-4.794-2.013 0-.437.33-.58.558-.783 2.323-2.084 4.657-4.158 6.975-6.248a5.374 5.374 0 011.526-.96 869.031 869.031 0 007.832-3.29c.406-.172.847-.269 1.187-.58-.107-.09-.213-.187-.32-.279-2.566 1.058-5.133 2.12-7.694 3.178-.036-.056-.071-.117-.107-.173 1.71-1.576 3.414-3.152 5.123-4.728a6.137 6.137 0 01-.248-.264c-2.065 1.82-4.134 3.634-6.194 5.46-.365.32-.72.64-1.182.833-3.804 1.591-7.608 3.188-11.412 4.784-.183.076-.36.193-.624.03 1.09-1.413 2.171-2.821 3.256-4.23 3.287-4.27 6.589-8.53 9.851-12.83.477-.626.928-.94 1.684-.666.137-.173.34-.194.537-.23-.253-.3-.715-.121-1.034-.502.735-1.2 1.684-2.273 2.556-3.401.132-.173.34-.188.543-.219 1.506-.244 3.023-.442 4.519-.757.756-.158 1.187.38 1.776.569.187-.015.375-.03.563-.04-.203-.189-.411-.377-.685-.626.325-.29.725-.264 1.09-.35a12.451 12.451 0 015.742-.006c1.492.34 3.023.529 4.535.788.198.036.396.076.558.305-1.562 1.139-3.368 1.886-4.92 3.035.091.081.187.158.279.239 1.674-.808 3.236-1.82 4.834-2.765.639-.377 1.247-.483 1.958-.356 2.267.411 4.534.818 6.812 1.174.537.081.771.32.898.803.228.86.461 1.724.74 2.567.183.56-.061.697-.548.794-3.053.59-6.107 1.189-9.155 1.825-.492.101-.842-.01-1.238-.265-1.187-.762-2.303-1.642-3.566-2.293l-.248.25 3.773 2.653c-1.394.483-2.49 1.51-4.017.997-.832.193-.588.925-.73 1.464.187-.056.401-.077.563-.178.908-.554 1.8-.412 2.754-.076.619.218.594.462.37.965-.512 1.134-.968 2.298-1.45 3.447l.243.32c.69-1.143 1.131-2.41 1.659-3.63.248-.569.532-.696 1.106-.508 1.841.6 3.697 1.164 5.549 1.724.558.167.979.554 1.445.864.467.315.868.727 1.4.94l.239-.208c-.279-.254-.558-.503-.842-.758.192-.305.411.041.603-.045.137-.148.325-.163.508-.183-.102-.061-.198-.163-.31-.183-3.089-.62-5.169-2.908-7.588-4.627-.02-.015-.01-.07-.025-.213 2.15-.432 4.311-.87 6.472-1.301.872-.173 1.76-.305 2.617-.53.583-.152.791.072.939.59.324 1.13.547 2.283 1.024 3.36.02-.187.041-.375.223-.497-.299-1.175-.603-2.344-.933-3.64 2.617-.65 5.26-1.098 8.156-1.673-1.354 2.227-2.581 4.25-3.814 6.268.183.163.365.326.548.493-.127-.366.111-.62.274-.89 1.075-1.768 2.145-3.537 3.231-5.296.537-.875.548-.864 1.745-.824 0 1.291.02 2.583-.005 3.874-.021.89-.163 1.784-.143 2.674.016.681-.202 1.052-.862 1.225-.38.102-.791.188-1.106.468.183.015.366.035.487.203.421-.117.837-.229 1.38-.376-.167 2.659-.172 5.251-.462 7.946-1.339-.773-2.318-1.927-3.565-2.695-.076.097-.158.194-.234.29.959.803 1.872 1.673 2.897 2.39.913.64 1.131 1.372.74 2.485l-4.159-2.892c-.091.076-.178.157-.269.234 1.324 1.016 2.648 2.033 4.139 3.182-1.785.6-3.373 1.139-4.966 1.672-.345.112-.532-.035-.568-.401-.167-1.81-.335-3.62-.507-5.43-.198.01-.391.026-.589.036.193 1.693.406 3.386.574 5.079.106 1.062.076 1.072-.969 1.423-5.641 1.891-11.286 3.772-16.926 5.679-1.106.376-2.253.645-3.303 1.19.188.014.371.04.492.208 3.297-1.088 6.6-2.166 9.891-3.264 3.221-1.073 6.437-2.17 9.658-3.238.406-.138.807-.397 1.339-.255.178 1.642.355 3.295.538 4.942.046.396-.01.818.213 1.184.051-.27-.02-.584.249-.788 0-1.505-.269-2.984-.427-4.473-.126-1.215-.121-1.22 1.04-1.602 1.421-.467 2.841-.93 4.261-1.388.025-.01.066.03.193.092-.421 1.855-.857 3.736-1.263 5.622-.213.987-.548 1.953-.604 2.97.091.101.178.208.269.31.71-2.283 1.091-4.642 1.669-6.955.127-.508.243-1.017.365-1.535.157.117-.02-.016.142-.02.036 0 .086.01.101.035a9955.84 9955.84 0 017.675 12.252c.086.137.167.28.101.513-1.684.26-3.398.518-5.107.783-.411.066-.812.127-1.05-.34-.031.315.071.533.421.564.263.025.552-.026.755.208 1.436-.208 2.876-.391 4.307-.64.791-.138 1.329-.031 1.77.772.837 1.52 1.775 2.994 2.749 4.433.467.697.528 1.2-.01 1.912-1.045 1.387-1.968 2.862-2.937 4.305l.274.32c1.157-1.641 2.313-3.278 3.541-5.022l4.159 6.456c.319-.208.568-.412.548-.89-.021-.528-.218-1.113.197-1.596-.015-2.597-.03-5.195-.04-7.793 0-.244-.036-.493-.005-.732.04-.346-.234-.884.466-.89.503-.005 1.005-.178 1.228.59.69 2.374 1.461 4.728 2.201 7.087.112.36.178.696-.157 1.001-1.106 1.017-2.191 2.054-3.292 3.07-.066.062-.228.026-.35.036.015.28.325.31.441.504 1.192-1.083 2.39-2.166 3.576-3.244.361.127.33.458.411.712.705 2.237 1.395 4.479 2.121 6.71.187.57.187 1.083-.031 1.637-.375.981-.7 1.978-1.065 3.025-1.04-.346-1.892-.966-2.81-1.444-.68-.356-1.334-.757-2.024-1.098-.497-.244-.7-.564-.67-1.138.051-.966.016-1.942.011-2.913-.355-.3-.163-.717-.239-1.078-.061-.295-.203-.397-.466-.193.167.06.273.178.273.356.006 1.367 0 2.735 0 4.244-1.379-.528-2.429-1.27-3.586-1.855.147-.514.695-.57.888-.96a10.498 10.498 0 00-.264-.24c-.04.01-.091.005-.116.03-.716.733-1.487.82-2.334.234l-.294.234c.274.209.553.422.913.702-1.385 1.078-2.719 2.12-4.053 3.157.092.076.178.157.269.234 1.289-.773 2.455-1.719 3.632-2.639.583-.457 1.019-.442 1.608-.07.786.492 1.608.955 2.45 1.341.659.26.811.707.781 1.393zm-29.983-5.643c.873-1.408 1.74-2.811 2.618-4.214.127-.203.264-.407.548-.427.958-.056 1.902-.346 3.165-.25-2.171 1.775-4.165 3.397-6.153 5.023-.061-.045-.122-.086-.178-.132zm-42.526-.162c-.36.28-.669.645-1.217.828v-4.555c.05-.01.106-.025.157-.035.391 1.042.771 2.084 1.172 3.116.096.249.111.468-.112.646zm.492.467c.076.03.167.24.132.3-.213.376-.563.371-1.04.265.299-.367.457-.743.908-.565zm38.362-41.523c-.025.05-.046.102-.071.147-1.572-.482-3.15-.96-4.834-1.474.183-.656.37-1.18.771-1.688 1.395 1.017 2.765 2.019 4.134 3.015zm-4.956-2.877c-.421 1.58-.537 1.626-1.897.767.624-.284 1.208-.605 1.897-.767zm45.545 53.429c.35 1.408-.578 1.8-1.826 2.155l.958-2.796c.077-.223.137-.513.477-.396.31.106.624.249.477.691-.035.112-.112.244-.086.346zm-2.689 2.608c-1.07.915-2.515 1.388-3.986 2.15.045-3.131.055-6.004.263-8.84.168-.173.32-.122.462-.046 1.415.778 2.825 1.58 4.256 2.338.446.234.588.499.385.956-.015.036-.02.082-.035.117-.487 1.103-.462 2.562-1.345 3.325zm-4.032 12.282a2.088 2.088 0 00-.167-.04V92.73c0-.213.086-.386.233-.538.604-.641 1.197-1.282 1.801-1.922.076.046.147.091.223.132-.7 2.018-1.395 4.042-2.09 6.065zm-.091-5.002c-.092-1.485.03-2.847.096-4.21.01-.218.102-.396.294-.498 1.106-.57 2.212-1.129 3.465-1.769-.366 2.821-1.715 4.804-3.855 6.477zm3.981-4.093c-.005-2.196 1.03-3.416 3.201-3.869.066.072.132.143.203.214-1.116 1.2-2.232 2.4-3.404 3.655zm3.409-7.147c-.32.157-.533-.03-.771-.168-.269-.148-.254-.366-.167-.615.299-.854.588-1.708.877-2.563.091.016.178.031.269.041.172.529.355 1.058.522 1.591.259.844.031 1.343-.73 1.714zm1.704-1.063l-.253.03c-.36-1.626-1.563-3.1-.624-4.961.319-.635.497-1.342.882-1.993-.005 2.308-.005 4.616-.005 6.924zm.036-9.313c-.026.701-.401 1.388-.624 2.08-.289.873-.593 1.743-.893 2.612-.395-.122-.365-.452-.446-.712-.66-2.084-1.299-4.168-1.963-6.248-.117-.365-.223-.67.117-.986 1.207-1.123 2.399-2.262 3.596-3.396.081.041.162.082.238.117.005 2.181.061 4.357-.025 6.533zm.04-8.25c0 .365 0 .71-.309 1-1.304 1.21-2.597 2.43-4.027 3.773-.842-2.685-1.618-5.155-2.405-7.62-.116-.367-.005-.565.289-.81 1.928-1.605 2.055-3.156.437-5.098-.203-.244-.325-.417-.153-.732.558-1.027 1.091-2.064 1.613-3.06.386.005.503.249.655.427 1.146 1.367 2.272 2.75 3.429 4.107.34.397.487.798.482 1.317-.026 2.232-.016 4.463-.011 6.695zm-.121-8.348c-1.334-1.602-2.542-3.06-3.764-4.51-.249-.294-.238-.538-.061-.869.71-1.311 1.39-2.638 2.156-4.097 1.709 2.974 2.105 6.029 1.669 9.476zm.71-3.025c1.019 2.155 1.755 4.413 2.414 6.777-.725-.865-1.44-1.74-2.176-2.593-.253-.295-.345-.615-.34-.997.011-1.057 0-2.104.102-3.187zm3.195 8.49c-1.05.996-2.044 1.937-3.236 3.07V54.92c.68.64 1.136 1.286 1.644 1.881.522.61 1.024 1.235 1.592 1.917zm-3.292 9.125c0-1.586.006-3.167-.005-4.753 0-.341.051-.63.32-.875.827-.767 1.638-1.55 2.638-2.221-.903 2.623-1.801 5.251-2.704 7.874-.086-.005-.167-.015-.249-.025z" fill="#4B24C9"/><path d="M158.521 54.787c-.005-.564-.086-1.154-.35-1.657-.329-.626.107-.768.507-.956-.121-.168-.304-.193-.492-.209-.527.128-.75-.249-.902-.62-.173-.427.268-.539.497-.711 5.731-4.423 11.473-8.84 17.215-13.259.097-.07.208-.122.36-.208.964.884 2.065 1.52 3.444 1.439.198-.01.391-.026.589-.036.837-.071 1.202.773 1.897.981.091-.076.177-.157.269-.234-.249-.401-.797-.488-1.03-1.016.533-.3.938-.793 1.552-.966.076-.097.157-.193.233-.29-.025-.397.249-.666.401-.991.35-.753.472-1.556.335-2.36-.107-.625.137-.873.695-1.026.421-.117.816-.33 1.227-.498-.121-.168-.304-.188-.487-.204-1.095.514-2.008.483-2.586-.777-.087-.194-.361-.3-.548-.448a46.864 46.864 0 01-.548-.493c-.837-.3-1.684-.585-2.592-.442-.457.071-.675-.137-.817-.519-.177.117-.203.305-.223.498-.091.128-.157.316-.279.377-.974.478-1.724 1.184-2.176 2.175-.147.32-.375.382-.675.351-.182.02-.37.036-.507.183.218.087.436.173.655.265.228.096.263.274.172.477-.157.361-.385.082-.588.062-.082.07-.158.137-.239.208.999.58.837 1.784 1.38 2.613.091.142.02.31-.127.422-.162.127-.314.26-.477.381-5.66 4.357-11.326 8.714-16.987 13.07-.157.122-.325.224-.492.34-.127-.08-.243-.126-.33-.213-.872-.849-.842-.493-.365-1.59 1.933-4.429 3.87-8.857 5.803-13.285.162-.37.396-.711.421-1.133a67.938 67.938 0 00-.244-.32c-1.384 3.11-2.769 6.222-4.149 9.338-.786 1.78-1.577 3.564-2.333 5.353-.218.514-.431.722-.979.382-.335-.209-.741-.326-1.126-.438-1.045-.305-1.065-.3-.979-1.448.345-4.413.695-8.826 1.05-13.238.071-.88.086-.89.974-.997 1.851-.223 3.408-.996 4.58-2.47.208-.265.467-.442.726-.64.137-.54-.102-1.272.73-1.465-.152-.147-.259-.32-.208-.539.238-.96.203-1.911-.005-2.877-.102-.468.259-.234.451-.234l.249-.25c-.279-.213-.543-.451-.837-.634-.639-.387-.137-.595.106-.855-.091-.08-.187-.157-.278-.238-.32.091-.584.116-.837-.22-1.132-1.473-2.623-2.338-4.479-2.561-.345-.04-.675-.244-1.01-.371-.187.015-.375.03-.563.04.026.224-.025.361-.289.412-2.308.442-3.926 1.774-4.834 3.935-.228.544-.517.61-1.014.483-.736-.188-1.451-.483-2.227-.514-.198.036-.401.056-.538.23.924.258 1.847.533 2.78.762.421.101.629.264.563.732-.228 1.672.208 3.182 1.157 4.555.126.183.142.366.116.569.081.086.168.173.249.264.979.448 1.851 1.053 2.683 1.724.106.091.213.188.32.28.157-.036.319-.051.466-.107.457-.184.589.01.553.442-.238 2.903-.472 5.805-.705 8.708-.137 1.693-.289 3.386-.416 5.079-.081 1.088-.071 1.077-1.121 1.22-1.263.173-2.44.6-3.409 1.444-.431.376-.826.401-1.308.239-.178.01-.355.035-.477.193l.761.452c-.634.935-1.197 1.87-1.42 2.959-.107.523-.447.473-.822.447-2.379-.152-4.758-.3-7.137-.452-2.379-.153-4.758-.305-7.137-.463-.36-.025-.735.026-1.055-.203-.223-.422-.613-.753-.71-1.25 0-.306-.162-.565-.34-.758-.431-.478-.142-.793.173-1.129-.132-.02-.264-.046-.396-.066-.923.376-1.314-.371-1.831-.864l-.248-.325c-.163.32-.376.457-.766.376-.766-.153-1.502.025-2.197.36-.304.397-.553.006-.821-.06-.629.005-.685-.712-1.147-.92l-.233.264c.081.132.137.3.248.391.599.503.492.971-.03 1.444-.005.447.208.925-.188 1.317-.684 1.937-.111 3.594 1.679 4.885.294.219.721.148.984.437.609.28 1.263.346 1.892.173.421-.112.594.081.787.356.086-.092.172-.183.253-.275-.015-.274.122-.432.355-.564.868-.498 1.481-1.23 2.065-2.155.086 1.81.177 3.624.263 5.434.274-.239.213-.57.219-.874.015-.626.025-1.25.04-1.876 0-.976.031-1.952-.015-2.923-.031-.615.213-.773.781-.732 2.064.137 4.129.239 6.198.366 2.43.147 4.86.31 7.284.467.406.026.807.082 1.213.107.344.026.512.209.497.55-.066 1.53.532 2.851 1.268 4.132.111.117.223.229.329.346.254.244.482.529.771.717.432.28.213.59.127.905.081.091.157.183.239.274.243-.137.314-.62.75-.376.629.35 1.319.539 1.994.773.081.03.116.198.177.3l.254.284c.132-.132.172-.356.406-.412.258.27.132.61.132.91.015 1.861-.031 3.717.025 5.577.02.722-.218 1.093-.878 1.337-.375.138-.76.254-1.136.402.026.162.274.34-.02.493-.193.432-.381.864-.588 1.291-.071.153-.132.422-.396.168l-.254.315c0 .04 0 .082-.005.122-.076.6.584 1.23.147 1.734-.37.427-1.024.62-1.562.894-1.725.895-3.449 1.78-5.179 2.664-.806.412-.801.397-1.349-.254-.315-.371-.614-.788-1.009-1.042-.563-.361-.498-.742-.229-1.205-.076-.102-.152-.198-.228-.3-.325.534-.654.798-1.359.453-1.203-.595-2.511-.62-3.805-.32-.471.111-.776.065-.984-.382-.233.076-.456.376-.72.05a.174.174 0 00-.172-.09l-.31.198c.188.254.553.335.665.737-.513.101-.756.818-1.431.57l-.243.304c-.289.763-.786 1.373-1.42 1.87-.005.179-.016.352-.021.53-1.511 3.645.289 7.666 3.967 8.891.264.086.553.112.832.163.198.066.4.137.598.203a.713.713 0 01.705.234c.3-.453.731-.56 1.238-.473 1.06-.01 1.872-.656 2.749-1.108.497.254.675.813 1.131 1.088.081-.087.163-.173.239-.26-.036-.07-.061-.152-.107-.213-.766-.971-.766-.971-.056-1.932a8.42 8.42 0 00.584-.925c.497-.93.492-.936 1.481-.798.091-.082.182-.163.279-.24-.183-.075-.365-.202-.553-.223-.614-.066-.68-.457-.614-.945.01-.29.325-.336.436-.54-.471-.904-.355-1.977-.796-2.892-.142-.3.112-.432.325-.539 2.424-1.194 4.763-2.552 7.243-3.645.254-.046.533-.472.751.051.735 1.118 1.81 1.505 3.094 1.439.36-.02.715-.03 1.075-.046.152-.168.304-.33.462-.498 1.501-1.052 1.947-2.242 1.466-3.9-.305-.264-.254-.686-.457-.996-.162-.203-.32-.412-.487-.61-.294-.356.091-.305.233-.401-.299-.29-.694-.133-1.034-.234a.788.788 0 01-.117-.036c-.517-.234-1.263 0-1.588-.427-.385-.513-.126-1.25-.137-1.89-.025-1.78-.01-3.56-.01-5.354 3.627-.447 5.844-2.369 6.63-5.867.416-.147.685.255 1.05.244.319-.162.309-.462.314-.757-.157-.04-.314-.112-.471-.117-.604-.015-.858-.34-.863-.981zM196.731 89.244c-.629-.778-1.426-1.307-2.425-1.454-.461-.066-.583-.315-.583-.742.005-2.623.02-5.242-.031-7.865-.015-.798.721-.894 1.025-1.372-.091-.077-.178-.158-.269-.234-.319.097-.771.58-.745-.275.015-.442.015-.89-.006-1.332-.05-.98-.162-1.982 1.228-2.12.791-1.067 1.659-.752 2.546-.152.031.02.076.015.117.02l.294-.233c-.233-.153-.451-.356-.71-.448-.751-.28-1.08-.706-.801-1.545.152-.448-.107-.93-.193-1.48 1.861.061 3.545.707 5.305.778l.295-.274c-1.654-.463-3.358-.646-5.037-.981-.538-.107-1.126-.097-1.471-.646l-.274-.32c-.989-.173-1.958-.351-2.972.015-.447.163-.924-.056-1.304-.453a202.766 202.766 0 00-3.748-3.817c-.33-.33-.305-.565-.036-.92 1.045-1.373 1.532-2.944 1.405-4.667-.046-.646.198-.89.776-.94-.208-.235-.492-.184-.756-.21-.35-.03-.451-.248-.421-.563-.426-1.74-1.547-2.939-3.002-3.89-.34-.223-.888-.259-.898-.843-.092-.102-.178-.209-.269-.31-.091.132-.193.376-.279.37a45.814 45.814 0 01-2.501-.248c-.172-.02-.198-.234-.228-.392-.066-.315-.127-.635-.193-.95-.269.203-.198.513-.248.788.081.594-.31.731-.771.843-1.329.326-2.455 1.017-3.383 2.019-.842.91-1.411 1.962-1.664 3.182-.132.325-.563.178-.731.452.355.061.558.219.538.636-.02.478.025.956.051 1.433.03.55.507 1.129.223 1.592-.238.386-.847.549-1.293.808l.294.234c.487-.03.862-.59 1.308-.437.442.147.528.757.847 1.113.239.264.406.595.746.752.406.25.822.504.208.971.162.24.025.473-.01.712.076.091.152.183.223.275.284-.377.558-.651 1.086-.306.395.26.867.397 1.308.585l.305-.046.01.01-.01-.01c-.077-.091-.188-.168-.229-.27-.091-.269.137-.213.259-.203.355.031.69.123.872.499-.309.34-.588-.071-.872 0l-.01-.01.01.01c.122.29.137.518-.289.462l-.107-.015-.101.046c.284.3.725.28 1.04.513.127-.005.253-.01.375-.02.203-.071.411-.142.614-.214l.081-.01c.107-.091.208-.183.314-.274-.116-.026-.233-.056-.35-.071-.162-.016-.339-.026-.304-.25.015-.101.102-.238.188-.269a2.08 2.08 0 01.588-.086c1.502-.046 2.831-.565 3.997-1.5.365-.295.629-.407 1.01-.005 1.1 1.164 2.236 2.298 3.357 3.442-.213.228-.436.101-.618.167-.264.056-.568-.025-.781.224.634.127 1.278.224 1.907.381.471.117.705.361.36.875-.426.64-.523 1.382-.345 2.11.132.543-.061.848-.472 1.108.097.08.188.157.284.239.234.025.452-.316.66-.112.558.549 1.171.97 1.947 1.128.193.04.213.229.219.387.01 1.169.005 2.333.01 3.502 0 .33-.32.442-.447.686l.289.275c.158.158.168.356.173.56.005 2.434.015 4.87.015 7.3 0 .304.091.7-.451.625-.269.142-.366.549-.756.498-1.187.36-1.897 1.225-2.242 2.349-.193.63-.538.813-1.111.793-.578.157-1.217-.163-1.76.244.634.055 1.273.132 1.907.167.447.026.797.112.751.676a.63.63 0 00.061.351c.416.722.076 1.175-.523 1.546.092.081.183.157.269.239.345.01.66-.585.964-.178.385.508 1.319.62 1.151 1.535.081.112.163.218.244.33.233-.62.705-.493 1.197-.422 1.887.275 3.342-.518 4.21-2.257l.487-.503c-.107-.895.061-1.815-.274-2.694-.071-.188.122-.356.269-.493a66.09 66.09 0 01-.289-.245c-.279.051-.462-.076-.624-.28zM202.99 70.526c.167.249-.061.224-.193.239-.116.01-.233.02-.335.06.528.194.543.56.132.91-.096.082-.192.169-.289.255.223-.122.452-.224.7-.31.269-.204.411-.097.467.193.071.361-.117.778.238 1.078-.04-.793-.527-1.678.482-2.247-.117-.193-.421-.219-.441-.503-.249-.788-.188-1.576-.041-2.37-.416.483-.218 1.068-.198 1.597.021.478-.228.681-.547.89.04.08.05.147.025.208z" fill="#4B24C9"/><path d="M200.322 73.22c.086.082.173.158.264.24.142-.174.289-.336.446-.489a2.795 2.795 0 01-.71.25zM203.706 72.95c.187-.741-.168-1.6.481-2.246-1.009.57-.522 1.454-.481 2.247zM203.746 70.206a13.58 13.58 0 00-.041-2.37c-.147.794-.208 1.582.041 2.37zM202.985 70.51c.005.006.005.011.011.016.02-.06.015-.127-.036-.203a.183.183 0 00.025.188z" fill="#4B24C9"/><path d="M202.305 71.99c.097-.086.193-.173.289-.254.411-.35.396-.717-.131-.91a.388.388 0 00-.193.142c.314.112.69.198.187.58-.715.554-1.425 1.113-2.14 1.672.259-.05.487-.137.705-.249a5.434 5.434 0 011.283-.98z" fill="#4B24C9"/><path d="M201.027 72.971a8.264 8.264 0 00-.446.488A16.318 16.318 0 00203 71.68a5.45 5.45 0 00-.7.311c-.401.361-.796.732-1.273.981z" fill="#4B24C9"/><path d="M202.306 71.99c-.477.26-.898.595-1.279.981.477-.249.873-.62 1.279-.98zM188.595 68.498c0-.138.051-.224.127-.28-.492-.056-.984-.112-1.476-.178.451.132.902.285 1.349.458zM181.616 66.881c.01.107-.036.198-.127.27.487.02.974.05 1.456.091a31.692 31.692 0 01-1.329-.36z" fill="#4B24C9"/><path d="M188.595 68.498l.04.015c.213-.25.518-.168.781-.224l-.7-.076c-.071.06-.116.152-.121.285zM181.615 66.881l-.055-.015c-.107.091-.208.183-.315.274.081.005.162.01.244.01.091-.076.137-.162.126-.269z" fill="#4B24C9"/><path d="M187.246 68.035a38.45 38.45 0 01-4.297-.798 34.32 34.32 0 00-1.456-.091l-.025.025c-.01.005-.025 0-.035.005 2.368.564 4.768.95 7.167 1.327v-.01c-.452-.168-.903-.32-1.354-.458z" fill="#4B24C9"/><path d="M181.463 67.176l.026-.026c-.082-.005-.163-.01-.244-.01.061.016.122.026.183.041.01-.005.025 0 .035-.005zM188.595 68.507c.015 0 .025.006.04.006l-.04-.015v.01zM187.246 68.035c.492.066.984.122 1.476.178a.783.783 0 01.273-.117c-.319-.087-.659-.081-.978-.137-2.136-.361-4.246-.88-6.402-1.093v.01c.442.132.888.254 1.334.36 1.456.133 2.891.382 4.297.799z" fill="#4B24C9"/><path d="M188.722 68.218l.7.076a1.262 1.262 0 00-.421-.193.688.688 0 00-.279.117zM181.615 66.87c-.02 0-.035-.004-.055-.004l.055.015v-.01zM187.245 68.035c-1.405-.422-2.84-.666-4.296-.798a37.39 37.39 0 004.296.798zM179.693 66.281c.081-.02.167-.107.132-.137-.076-.077-.198-.097-.315-.087.137.077.178.178.107.31l.005.006c.025-.03.045-.061.071-.092z" fill="#4B24C9"/><path d="M179.511 66.057c.116-.01.238.01.314.087.036.03-.051.122-.132.137-.025.03-.051.061-.071.091l.01.01c.284-.07.568.341.873 0-.183-.376-.518-.467-.873-.498-.121-.01-.35-.066-.258.204.035.102.147.183.228.27l.01.01c.076-.133.035-.234-.101-.31zM202.29 70.775s0-.005 0 0a.909.909 0 01-.472-.218.362.362 0 01-.116.28c.192-.006.39-.082.588-.062z" fill="#4B24C9"/><path d="M201.697 70.836a.346.346 0 00.117-.28c-.016-.015-.031-.025-.046-.04-.097.091-.198.183-.294.274a.516.516 0 00.223.046zM202.29 70.77c.107-.28.599.04.695-.26-.39 0-.781.006-1.172.006 0 .015.006.025.006.04a.858.858 0 00.471.214z" fill="#4B24C9"/><path d="M201.813 70.516h-.04c.015.015.03.025.045.04 0-.01-.005-.025-.005-.04zM201.697 70.836c-.02.02-.046.036-.066.056.198.097.416.102.639.076a.439.439 0 01.02-.193c-.198-.02-.395.056-.593.061z" fill="#4B24C9"/><path d="M201.474 70.79c.05.041.101.072.157.097a.355.355 0 00.066-.056.445.445 0 01-.223-.04zM202.879 70.653a1.1 1.1 0 01-.589.122s0 .005-.005.005c.026.005.046.005.071.01.041.01.071.026.102.036.101-.04.218-.051.334-.061.132-.01.361.015.193-.24-.01.047-.046.087-.106.128z" fill="#4B24C9"/><path d="M202.29 70.77c.188.02.386-.025.588-.122a.241.241 0 00.112-.127c-.005-.005-.005-.01-.01-.015-.091.305-.578-.016-.69.264zM202.29 70.775a.516.516 0 00-.02.193.393.393 0 01.193-.142c-.036-.01-.066-.025-.102-.036-.025-.01-.051-.01-.071-.015zM179.592 66.403a.81.81 0 01-.153.102c.011.01.016.025.021.035.05-.045.096-.086.132-.137zM179.622 66.368c-.005 0-.005 0 0 0-.01.005-.01.01-.015.02.005-.005.01-.01.015-.02z" fill="#4B24C9"/><path d="M179.602 66.398c-.005.005-.005.005-.01.005-.041.051-.087.092-.132.132.04.092-.021.194-.122.3.426.056.411-.167.289-.462l-.01-.01c-.005.005-.01.01-.015.02.005.01.005.01 0 .015z" fill="#4B24C9"/><path d="M179.607 66.388a.217.217 0 01-.016.016c.006 0 .006-.006.011-.006.005-.005.005-.005.005-.01zM179.591 66.403l.016-.015c.005-.01.005-.015.01-.02l-.01-.01-.305.045c.066.03.112.066.142.102a.676.676 0 00.147-.102zM179.444 66.505c-.035.02-.076.035-.116.05h-.011c.005.036.005.067.011.102a.507.507 0 00.136-.117c-.005-.015-.015-.025-.02-.035z" fill="#4B24C9"/><path d="M179.465 66.54c-.041.041-.087.087-.137.117l.015.189c.101-.112.162-.214.122-.306zM179.328 66.55c.04-.01.081-.03.116-.05a.362.362 0 00-.142-.102l.015.148c0 .005.006.005.011.005z" fill="#4B24C9"/></svg>